<svg width="48" height="48" viewBox="0 0 48 48" fill="none" xmlns="http://www.w3.org/2000/svg">
<rect width="48" height="48" rx="4.5" fill="#865DFF"/>
<path d="M4.39794 18.296V14.48H11.0459V32H6.77394V18.296H4.39794ZM13.8534 23C13.8534 20.248 14.3814 18.08 15.4374 16.496C16.5094 14.912 18.2294 14.12 20.5974 14.12C22.9654 14.12 24.6774 14.912 25.7334 16.496C26.8054 18.08 27.3414 20.248 27.3414 23C27.3414 25.784 26.8054 27.968 25.7334 29.552C24.6774 31.136 22.9654 31.928 20.5974 31.928C18.2294 31.928 16.5094 31.136 15.4374 29.552C14.3814 27.968 13.8534 25.784 13.8534 23ZM23.3094 23C23.3094 21.384 23.1334 20.144 22.7814 19.28C22.4294 18.4 21.7014 17.96 20.5974 17.96C19.4934 17.96 18.7654 18.4 18.4134 19.28C18.0614 20.144 17.8854 21.384 17.8854 23C17.8854 24.088 17.9494 24.992 18.0774 25.712C18.2054 26.416 18.4614 26.992 18.8454 27.44C19.2454 27.872 19.8294 28.088 20.5974 28.088C21.3654 28.088 21.9414 27.872 22.3254 27.44C22.7254 26.992 22.9894 26.416 23.1174 25.712C23.2454 24.992 23.3094 24.088 23.3094 23ZM29.5096 23C29.5096 20.248 30.0376 18.08 31.0936 16.496C32.1656 14.912 33.8856 14.12 36.2536 14.12C38.6216 14.12 40.3336 14.912 41.3896 16.496C42.4616 18.08 42.9976 20.248 42.9976 23C42.9976 25.784 42.4616 27.968 41.3896 29.552C40.3336 31.136 38.6216 31.928 36.2536 31.928C33.8856 31.928 32.1656 31.136 31.0936 29.552C30.0376 27.968 29.5096 25.784 29.5096 23ZM38.9656 23C38.9656 21.384 38.7896 20.144 38.4376 19.28C38.0856 18.4 37.3576 17.96 36.2536 17.96C35.1496 17.96 34.4216 18.4 34.0696 19.28C33.7176 20.144 33.5416 21.384 33.5416 23C33.5416 24.088 33.6056 24.992 33.7336 25.712C33.8616 26.416 34.1176 26.992 34.5016 27.44C34.9016 27.872 35.4856 28.088 36.2536 28.088C37.0216 28.088 37.5976 27.872 37.9816 27.44C38.3816 26.992 38.6456 26.416 38.7736 25.712C38.9016 24.992 38.9656 24.088 38.9656 23Z" fill="black"/>
</svg>
