<svg width="48" height="48" viewBox="0 0 48 48" fill="none" xmlns="http://www.w3.org/2000/svg">
<rect width="48" height="48" rx="4.5" fill="black"/>
<path d="M32.3824 31.9218L32.3818 31.921L26.8093 24.7567L34.6432 21.6275C34.6444 21.627 34.6457 21.6265 34.647 21.626C34.8606 21.5418 35.0555 21.4165 35.2207 21.257C35.3869 21.0966 35.5197 20.9049 35.6115 20.693C35.7032 20.481 35.7521 20.253 35.7553 20.022C35.7585 19.7911 35.7159 19.5618 35.6301 19.3474C35.5442 19.133 35.4168 18.9377 35.2551 18.7727C35.0934 18.6078 34.9007 18.4765 34.688 18.3864C34.4753 18.2963 34.2469 18.2492 34.016 18.2479C33.7866 18.2465 33.5593 18.2902 33.3468 18.3765L25.75 21.4154V13C25.75 12.5359 25.5656 12.0908 25.2374 11.7626C24.9092 11.4344 24.4641 11.25 24 11.25C23.5359 11.25 23.0907 11.4344 22.7626 11.7626C22.4344 12.0908 22.25 12.5359 22.25 13V21.4162L14.6529 18.3814C14.4405 18.2951 14.2133 18.2515 13.984 18.2529C13.7531 18.2542 13.5247 18.3013 13.312 18.3914C13.0993 18.4815 12.9066 18.6128 12.7449 18.7777C12.5832 18.9427 12.4558 19.138 12.3699 19.3524C12.2841 19.5668 12.2415 19.7961 12.2447 20.027C12.2479 20.258 12.2968 20.486 12.3885 20.698C12.4803 20.9099 12.6131 21.1016 12.7793 21.262C12.9445 21.4215 13.1394 21.5468 13.353 21.631L21.1906 24.7617L15.6182 31.926L15.6176 31.9268C15.4767 32.1083 15.3729 32.3158 15.3121 32.5375C15.2514 32.7591 15.2349 32.9906 15.2636 33.2186C15.2923 33.4466 15.3656 33.6668 15.4794 33.8664C15.5932 34.0661 15.7452 34.2414 15.9267 34.3824C16.1083 34.5233 16.3158 34.6271 16.5375 34.6879C16.7591 34.7486 16.9906 34.7651 17.2186 34.7364C17.4466 34.7077 17.6668 34.6343 17.8664 34.5206C18.0659 34.4069 18.241 34.2552 18.3819 34.0739C18.382 34.0738 18.382 34.0737 18.3821 34.0736C18.3822 34.0735 18.3823 34.0734 18.3824 34.0732L24.0002 26.8498L29.6176 34.0682C29.9023 34.4349 30.3209 34.6734 30.7814 34.7314C31.2419 34.7894 31.7066 34.662 32.0732 34.3774C32.4399 34.0928 32.6784 33.6741 32.7364 33.2136C32.7944 32.7531 32.667 32.2884 32.3824 31.9218Z" fill="#FBBF24" stroke="#FBBF24" stroke-width="2"/>
</svg>
