<svg width="128" height="128" viewBox="0 0 128 128" fill="none" xmlns="http://www.w3.org/2000/svg">
<g clip-path="url(#clip0_539_55)">
<rect width="128" height="128" fill="#E9B824"/>
<path d="M-5.256 87.08V73.76L16.2 43.16H33.408V73.256H38.592V87.08H33.408V95H17.28V87.08H-5.256ZM18.576 61.376L10.8 73.256H18.576V61.376ZM83.7433 56.408H62.8633V62.456C63.7753 61.64 64.9513 60.992 66.3913 60.512C67.8793 60.032 69.5353 59.792 71.3593 59.792C74.6233 59.792 77.3833 60.56 79.6393 62.096C81.8953 63.632 83.5753 65.696 84.6793 68.288C85.7833 70.832 86.3353 73.664 86.3353 76.784C86.3353 82.544 84.7033 87.032 81.4393 90.248C78.2233 93.416 73.7833 95 68.1193 95C63.9913 95 60.4153 94.28 57.3913 92.84C54.4153 91.4 52.1353 89.408 50.5513 86.864C49.0153 84.32 48.2953 81.416 48.3913 78.152H63.9433C63.9433 78.92 64.2073 79.64 64.7353 80.312C65.2633 80.984 66.1273 81.32 67.3273 81.32C68.5273 81.32 69.4153 80.888 69.9913 80.024C70.5673 79.16 70.8553 77.984 70.8553 76.496C70.8553 75.104 70.5193 74.048 69.8473 73.328C69.2233 72.608 68.3113 72.248 67.1113 72.248C66.1033 72.248 65.3353 72.488 64.8073 72.968C64.2793 73.448 64.0153 74 64.0153 74.624H48.4633V42.368H83.7433V56.408ZM91.5306 67.928C91.5306 59.624 93.2826 53.096 96.7866 48.344C100.339 43.592 105.787 41.216 113.131 41.216C120.427 41.216 125.851 43.616 129.403 48.416C132.955 53.168 134.731 59.672 134.731 67.928C134.731 76.232 132.955 82.784 129.403 87.584C125.851 92.336 120.427 94.712 113.131 94.712C105.787 94.712 100.339 92.336 96.7866 87.584C93.2826 82.784 91.5306 76.232 91.5306 67.928ZM118.963 67.928C118.963 64.088 118.579 61.208 117.811 59.288C117.043 57.32 115.483 56.336 113.131 56.336C110.731 56.336 109.147 57.32 108.379 59.288C107.611 61.208 107.227 64.088 107.227 67.928C107.227 71.816 107.611 74.744 108.379 76.712C109.147 78.632 110.731 79.592 113.131 79.592C115.483 79.592 117.043 78.632 117.811 76.712C118.579 74.744 118.963 71.816 118.963 67.928Z" fill="black"/>
</g>
<defs>
<clipPath id="clip0_539_55">
<rect width="128" height="128" fill="white"/>
</clipPath>
</defs>
</svg>
