<svg width="128" height="128" viewBox="0 0 128 128" fill="none" xmlns="http://www.w3.org/2000/svg">
<rect width="128" height="128" fill="black"/>
<path d="M64 75.5C70.3513 75.5 75.5 70.3513 75.5 64C75.5 57.6487 70.3513 52.5 64 52.5C57.6487 52.5 52.5 57.6487 52.5 64C52.5 70.3513 57.6487 75.5 64 75.5Z" fill="#DA2FF5"/>
<path fill-rule="evenodd" clip-rule="evenodd" d="M23.0731 61.879C28.7742 44.7402 44.9403 32.375 64.002 32.375C83.0548 32.375 99.2147 44.7287 104.923 61.8551C105.384 63.2391 105.385 64.7367 104.924 66.121C99.223 83.2598 83.0569 95.625 63.9953 95.625C44.9425 95.625 28.7825 83.2713 23.0743 66.1449C22.613 64.7609 22.6126 63.2633 23.0731 61.879ZM84.125 64C84.125 75.1147 75.1147 84.125 64 84.125C52.8853 84.125 43.875 75.1147 43.875 64C43.875 52.8853 52.8853 43.875 64 43.875C75.1147 43.875 84.125 52.8853 84.125 64Z" fill="#DA2FF5"/>
</svg>
