<svg width="128" height="128" viewBox="0 0 128 128" fill="none" xmlns="http://www.w3.org/2000/svg">
<g clip-path="url(#clip0_559_8)">
<rect width="128" height="128" fill="#E384FF"/>
<path d="M47.1138 62.1273C51.6828 63.1982 55.2167 65.4113 57.7154 68.7667C60.2855 72.0507 61.5706 75.8702 61.5706 80.2251C61.5706 86.8645 59.3574 92.0047 54.9311 95.6456C50.5763 99.2152 44.2938 101 36.0838 101H-3.64563V25.1822H35.0129C42.7232 25.1822 48.7915 26.8599 53.2177 30.2153C57.644 33.5707 59.8572 38.461 59.8572 44.8862C59.8572 49.3125 58.6792 53.0606 56.3233 56.1304C54.0387 59.1289 50.9689 61.1278 47.1138 62.1273ZM20.1278 54.7383H29.3373C31.479 54.7383 33.0496 54.3099 34.0491 53.4532C35.12 52.5965 35.6554 51.2758 35.6554 49.491C35.6554 47.6348 35.12 46.2784 34.0491 45.4217C33.0496 44.4936 31.479 44.0295 29.3373 44.0295H20.1278V54.7383ZM30.9436 81.9385C33.0853 81.9385 34.6559 81.5458 35.6554 80.7605C36.7263 79.9038 37.2617 78.5474 37.2617 76.6912C37.2617 73.0502 35.1557 71.2297 30.9436 71.2297H20.1278V81.9385H30.9436Z" fill="#0F1729"/>
<rect x="72.4774" y="24.8732" width="64.6986" height="78.0845" rx="6.69296" fill="#0F1729"/>
</g>
<defs>
<clipPath id="clip0_559_8">
<rect width="128" height="128" fill="white"/>
</clipPath>
</defs>
</svg>
