<svg width="128" height="128" viewBox="0 0 128 128" fill="none" xmlns="http://www.w3.org/2000/svg">
<rect width="128" height="128" fill="#24252D"/>
<path d="M101.375 64C101.375 71.3921 99.183 78.6181 95.0762 84.7644C90.9694 90.9107 85.1322 95.7012 78.3028 98.53C71.4734 101.359 63.9586 102.099 56.7085 100.657C49.4585 99.2147 42.7989 95.6551 37.5719 90.4281C32.3449 85.2011 28.7853 78.5415 27.3432 71.2915C25.901 64.0415 26.6412 56.5266 29.47 49.6972C32.2988 42.8678 37.0893 37.0306 43.2356 32.9238C49.3819 28.817 56.6079 26.625 64 26.625C73.9087 26.6374 83.408 30.579 90.4145 37.5855C97.421 44.592 101.363 54.0913 101.375 64Z" fill="#24D05A"/>
</svg>
