<svg width="128" height="128" viewBox="0 0 128 128" fill="none" xmlns="http://www.w3.org/2000/svg">
<g clip-path="url(#clip0_562_8)">
<rect width="128" height="128" fill="white"/>
<path d="M97.84 82.84C94.48 87.4 89.96 91.84 84.28 96.16C78.6 100.4 72.36 102.52 65.56 102.52C58.36 102.52 52.48 100.48 47.92 96.4C43.36 92.24 41.08 86.12 41.08 78.04C41.08 72.52 42.04 66.28 43.96 59.32C45.88 52.36 48.12 46.32 50.68 41.2C53.32 36 56.36 31.68 59.8 28.24C63.32 24.8 66.84 23.08 70.36 23.08C73.8 23.08 76.44 24.32 78.28 26.8C80.2 29.28 81.16 32.36 81.16 36.04C81.16 37.4 80.88 38.8 80.32 40.24C79.84 41.6 79.28 42.76 78.64 43.72C78 44.68 77.52 45.16 77.2 45.16C76.56 45.16 76.24 44.8 76.24 44.08C76.24 43.84 76.36 43.32 76.6 42.52C76.92 41.64 77.08 40.92 77.08 40.36C77.08 38.36 76.84 36.48 76.36 34.72C75.96 33.2 75.16 31.96 73.96 31C72.76 29.96 71.44 29.44 70 29.44C64.24 29.44 58.84 35 53.8 46.12C51.8 50.6 50.12 55.64 48.76 61.24C47.4 66.84 46.72 72.24 46.72 77.44C46.72 81.04 47.44 84.32 48.88 87.28C50.4 90.24 52.52 92.6 55.24 94.36C58.04 96.12 61.28 97 64.96 97C70.8 97 76.08 95.6 80.8 92.8C85.6 90 90.32 86.4 94.96 82C95.12 81.84 95.68 80.96 96.64 79.36C97.6 77.68 98.32 76.84 98.8 76.84C99.28 76.84 99.6 76.96 99.76 77.2C99.92 77.44 100 77.88 100 78.52C100 79.32 99.28 80.76 97.84 82.84Z" fill="black"/>
</g>
<defs>
<clipPath id="clip0_562_8">
<rect width="128" height="128" fill="white"/>
</clipPath>
</defs>
</svg>
