<svg width="144" height="144" viewBox="0 0 144 144" fill="none" xmlns="http://www.w3.org/2000/svg">
<rect x="4" y="4" width="136" height="136" rx="68" fill="#F9E9C3"/>
<path d="M108.013 68.2661L100.865 40.9105C100.679 40.1673 100.258 39.5038 99.6656 39.0178C99.0731 38.5319 98.3401 38.2494 97.5748 38.2119C96.8095 38.1745 96.0524 38.3841 95.4154 38.8098C94.7783 39.2356 94.295 39.8549 94.0369 40.5763L87.5142 58.3438H56.4858L49.9559 40.5763C49.6978 39.8549 49.2145 39.2356 48.5774 38.8098C47.9403 38.3841 47.1833 38.1745 46.4179 38.2119C45.6526 38.2494 44.9196 38.5319 44.3272 39.0178C43.7348 39.5038 43.3143 40.1673 43.1278 40.9105L35.987 68.2661C34.9709 72.1465 35.1555 76.2438 36.5163 80.0172C37.8772 83.7905 40.3504 87.0624 43.6094 89.401L69.9408 108.006C70.5426 108.429 71.2605 108.657 71.9964 108.657C72.7323 108.657 73.4502 108.429 74.052 108.006L100.391 89.401C103.65 87.0624 106.123 83.7905 107.484 80.0172C108.844 76.2438 109.029 72.1465 108.013 68.2661ZM97.8965 85.8755L72 104.175L46.1034 85.8791C43.5559 84.049 41.6238 81.4888 40.5625 78.5371C39.5012 75.5854 39.3606 72.3812 40.1594 69.3478L46.7179 44.2635L52.9531 61.2439C53.1055 61.6587 53.3817 62.0165 53.7442 62.2692C54.1067 62.5218 54.5381 62.6569 54.98 62.6563H89.02C89.4618 62.6569 89.8932 62.5218 90.2557 62.2692C90.6182 62.0165 90.8944 61.6587 91.0468 61.2439L97.2856 44.2635L103.844 69.355C104.641 72.3877 104.499 75.5907 103.437 78.5409C102.375 81.4912 100.443 84.0499 97.8965 85.8791V85.8755Z" fill="#F93B6D"/>
<rect x="4" y="4" width="136" height="136" rx="68" stroke="#F7F7F7" stroke-width="8"/>
</svg>
