<svg width="128" height="128" viewBox="0 0 128 128" fill="none" xmlns="http://www.w3.org/2000/svg">
<rect width="128" height="128" fill="black"/>
<g clip-path="url(#clip0_126_29)">
<rect x="18" y="18" width="92" height="92" fill="#FCE22A"/>
<path d="M63.9998 26.5185C63.9998 36.4592 60.0509 45.9928 53.0218 53.022C45.9927 60.0512 36.4592 64.0001 26.5185 64.0002C36.4591 64.0003 45.9926 67.9493 53.0217 74.9783C60.0507 82.0074 63.9997 91.5409 63.9998 101.481C63.9999 91.5408 67.9489 82.0073 74.978 74.9782C82.0072 67.9491 91.5408 64.0002 101.481 64.0002C96.5593 64.0003 91.6853 63.0308 87.1378 61.1471C82.5903 59.2635 78.4584 56.5026 74.9779 53.0221C71.4974 49.5416 68.7365 45.4097 66.8529 40.8622C64.9692 36.3147 63.9997 31.4407 63.9998 26.5185Z" fill="black"/>
</g>
<defs>
<clipPath id="clip0_126_29">
<rect x="18" y="18" width="92" height="92" rx="18.4" fill="white"/>
</clipPath>
</defs>
</svg>
