<svg width="128" height="128" viewBox="0 0 128 128" fill="none" xmlns="http://www.w3.org/2000/svg">
<rect width="128" height="128" fill="#F6EF46"/>
<path d="M98.5 35.9688H29.5C28.1656 35.9688 26.8859 36.4988 25.9424 37.4424C24.9988 38.3859 24.4688 39.6656 24.4688 41V87C24.4688 88.3344 24.9988 89.6141 25.9424 90.5576C26.8859 91.5012 28.1656 92.0312 29.5 92.0312H51.3105C51.9714 92.0325 52.626 91.9029 53.2366 91.65C53.8472 91.3972 54.4018 91.026 54.8683 90.5578L63.4933 81.9328C63.6279 81.7989 63.8101 81.7238 64 81.7238C64.1899 81.7238 64.3721 81.7989 64.5067 81.9328L73.1317 90.5578C73.5982 91.026 74.1528 91.3972 74.7634 91.65C75.374 91.9029 76.0286 92.0325 76.6895 92.0312H98.5C99.8344 92.0312 101.114 91.5012 102.058 90.5576C103.001 89.6141 103.531 88.3344 103.531 87V41C103.531 39.6656 103.001 38.3859 102.058 37.4424C101.114 36.4988 99.8344 35.9688 98.5 35.9688ZM99.2188 87C99.2188 87.1906 99.143 87.3734 99.0082 87.5082C98.8734 87.643 98.6906 87.7188 98.5 87.7188H76.6895C76.4997 87.7189 76.3176 87.644 76.1828 87.5103L67.5578 78.8853C67.0906 78.4181 66.5359 78.0474 65.9255 77.7945C65.315 77.5417 64.6608 77.4115 64 77.4115C63.3392 77.4115 62.685 77.5417 62.0745 77.7945C61.4641 78.0474 60.9094 78.4181 60.4422 78.8853L51.8172 87.5103C51.683 87.6453 51.5008 87.7215 51.3105 87.7223H29.5C29.3094 87.7223 29.1266 87.6466 28.9918 87.5118C28.857 87.377 28.7812 87.1942 28.7812 87.0036V41C28.7812 40.8094 28.857 40.6266 28.9918 40.4918C29.1266 40.357 29.3094 40.2812 29.5 40.2812H98.5C98.6906 40.2812 98.8734 40.357 99.0082 40.4918C99.143 40.6266 99.2188 40.8094 99.2188 41V87ZM46.75 53.2188C44.6177 53.2188 42.5332 53.8511 40.7603 55.0357C38.9873 56.2204 37.6054 57.9042 36.7894 59.8742C35.9734 61.8442 35.7599 64.012 36.1759 66.1033C36.5919 68.1947 37.6187 70.1157 39.1265 71.6235C40.6343 73.1313 42.5553 74.1581 44.6467 74.5741C46.738 74.9901 48.9058 74.7766 50.8758 73.9606C52.8458 73.1446 54.5296 71.7627 55.7143 69.9897C56.8989 68.2168 57.5312 66.1323 57.5312 64C57.5312 61.1406 56.3954 58.3984 54.3735 56.3765C52.3516 54.3546 49.6094 53.2188 46.75 53.2188ZM46.75 70.4688C45.4706 70.4688 44.2199 70.0894 43.1562 69.3786C42.0924 68.6678 41.2633 67.6575 40.7737 66.4755C40.284 65.2935 40.1559 63.9928 40.4055 62.738C40.6551 61.4832 41.2712 60.3306 42.1759 59.4259C43.0806 58.5212 44.2332 57.9051 45.488 57.6555C46.7428 57.4059 48.0435 57.5341 49.2255 58.0237C50.4075 58.5133 51.4178 59.3424 52.1286 60.4062C52.8394 61.4699 53.2188 62.7206 53.2188 64C53.2188 65.7156 52.5372 67.361 51.3241 68.5741C50.111 69.7872 48.4656 70.4688 46.75 70.4688ZM81.25 53.2188C79.1177 53.2188 77.0332 53.8511 75.2603 55.0357C73.4873 56.2204 72.1054 57.9042 71.2894 59.8742C70.4734 61.8442 70.2599 64.012 70.6759 66.1033C71.0919 68.1947 72.1187 70.1157 73.6265 71.6235C75.1343 73.1313 77.0553 74.1581 79.1467 74.5741C81.238 74.9901 83.4058 74.7766 85.3758 73.9606C87.3458 73.1446 89.0296 71.7627 90.2143 69.9897C91.3989 68.2168 92.0313 66.1323 92.0312 64C92.0313 61.1406 90.8954 58.3984 88.8735 56.3765C86.8516 54.3546 84.1094 53.2188 81.25 53.2188ZM81.25 70.4688C79.9706 70.4688 78.7199 70.0894 77.6562 69.3786C76.5924 68.6678 75.7633 67.6575 75.2737 66.4755C74.784 65.2935 74.6559 63.9928 74.9055 62.738C75.1551 61.4832 75.7712 60.3306 76.6759 59.4259C77.5806 58.5212 78.7332 57.9051 79.988 57.6555C81.2428 57.4059 82.5435 57.5341 83.7255 58.0237C84.9075 58.5133 85.9178 59.3424 86.6286 60.4062C87.3394 61.4699 87.7188 62.7206 87.7188 64C87.7188 65.7156 87.0372 67.361 85.8241 68.5741C84.611 69.7872 82.9656 70.4688 81.25 70.4688Z" fill="black"/>
</svg>
