<svg width="128" height="128" viewBox="0 0 128 128" fill="none" xmlns="http://www.w3.org/2000/svg">
<rect width="128" height="128" fill="#1DA1F2"/>
<path d="M101.095 39.3612L72.3447 99.7363C72.1882 100.086 71.9633 100.402 71.6832 100.663C71.4031 100.925 71.0735 101.128 70.7137 101.261C70.3539 101.394 69.9712 101.453 69.5881 101.435C69.2051 101.418 68.8294 101.324 68.4833 101.159C68.1371 100.994 67.8274 100.761 67.5725 100.475C67.3175 100.188 67.1224 99.8539 66.9987 99.491C66.8749 99.1281 66.8251 98.7441 66.852 98.3616C66.8789 97.9791 66.982 97.6058 67.1553 97.2638L77.5197 75.5H29.5C28.9409 75.5004 28.3937 75.3377 27.9257 75.0318C27.4576 74.726 27.0888 74.2903 26.8646 73.7781C26.6403 73.2659 26.5703 72.6994 26.663 72.148C26.7558 71.5966 27.0074 71.0842 27.3869 70.6736L42.6819 54.1064L27.5558 40.2453C27.1283 39.8539 26.8292 39.3424 26.6975 38.7779C26.5659 38.2134 26.608 37.6224 26.8182 37.0822C27.0284 36.5421 27.397 36.0781 27.8756 35.7511C28.3542 35.4242 28.9204 35.2495 29.5 35.25H98.5C98.9853 35.2502 99.4627 35.3732 99.8877 35.6076C100.313 35.842 100.671 36.1802 100.93 36.5906C101.189 37.001 101.34 37.4703 101.369 37.9548C101.398 38.4392 101.303 38.9231 101.095 39.3612Z" fill="white"/>
</svg>
