<svg width="128" height="128" viewBox="0 0 128 128" fill="none" xmlns="http://www.w3.org/2000/svg">
<rect width="128" height="128" fill="black"/>
<g clip-path="url(#clip0_546_47)">
<path d="M81.3656 86.8478C83.4324 84.784 86.7781 84.7894 88.8383 86.8598C90.8985 88.9303 90.8931 92.2818 88.8263 94.3457L79.6485 103.51C71.1813 111.965 57.374 112.088 48.764 103.795C48.7142 103.747 44.8804 99.9878 32.2328 87.586C23.8187 79.3357 22.9804 66.1342 30.8983 57.6565L45.6612 41.8491C53.5196 33.4344 68.0054 32.5146 76.9904 39.7807L90.3986 50.6244C92.6692 52.4607 93.0239 55.7933 91.1908 58.068C89.3576 60.3426 86.0308 60.6979 83.7601 58.8615L70.352 48.0179C65.6531 44.2179 57.4332 44.7398 53.3786 49.0816L38.6155 64.8891C34.7609 69.0162 35.1831 75.6649 39.6252 80.0206C48.9125 89.1275 56.0702 96.1458 56.0785 96.1537C60.5548 100.465 67.7928 100.401 72.1878 96.0122L81.3656 86.8478Z" fill="#FFA116"/>
<path fill-rule="evenodd" clip-rule="evenodd" d="M59.0704 77.6768C56.1522 77.6768 53.7864 75.307 53.7864 72.3836C53.7864 69.4602 56.1522 67.0904 59.0704 67.0904H98.0401C100.958 67.0904 103.324 69.4602 103.324 72.3836C103.324 75.307 100.958 77.6768 98.0401 77.6768H59.0704Z" fill="#B3B3B3"/>
<path fill-rule="evenodd" clip-rule="evenodd" d="M66.3683 19.677C68.3621 17.5422 71.7059 17.4307 73.8369 19.4279C75.968 21.4251 76.0794 24.7747 74.0856 26.9095L38.6157 64.8892C34.7609 69.0161 35.1831 75.6648 39.6249 80.0206L56.0055 96.0832C58.0909 98.1282 58.1266 101.48 56.0852 103.568C54.0438 105.658 50.6983 105.693 48.6129 103.649L32.2323 87.5857C23.8187 79.3351 22.9804 66.1335 30.8987 57.6564L66.3683 19.677Z" fill="white"/>
</g>
<defs>
<clipPath id="clip0_546_47">
<rect width="78.7387" height="92" fill="white" transform="translate(25 18)"/>
</clipPath>
</defs>
</svg>
