<svg width="128" height="128" viewBox="0 0 128 128" fill="none" xmlns="http://www.w3.org/2000/svg">
<g clip-path="url(#clip0_166_7)">
<rect width="128" height="128" fill="white"/>
<path d="M91.506 51.352C91.506 55.3373 90.5913 58.996 88.762 62.328C86.9327 65.5947 84.1233 68.2407 80.334 70.266C76.5447 72.2913 71.8407 73.304 66.222 73.304H55.834V98H39.076V29.204H66.222C71.71 29.204 76.3487 30.1513 80.138 32.046C83.9273 33.9407 86.7693 36.554 88.664 39.886C90.5587 43.218 91.506 47.04 91.506 51.352ZM64.948 59.976C68.1493 59.976 70.534 59.2247 72.102 57.722C73.67 56.2193 74.454 54.096 74.454 51.352C74.454 48.608 73.67 46.4847 72.102 44.982C70.534 43.4793 68.1493 42.728 64.948 42.728H55.834V59.976H64.948Z" fill="black"/>
</g>
<defs>
<clipPath id="clip0_166_7">
<rect width="128" height="128" fill="white"/>
</clipPath>
</defs>
</svg>
