<svg width="128" height="128" viewBox="0 0 128 128" fill="none" xmlns="http://www.w3.org/2000/svg">
<rect width="128" height="128" fill="white"/>
<path d="M64 26.625C56.6079 26.625 49.3819 28.817 43.2356 32.9238C37.0893 37.0306 32.2988 42.8678 29.47 49.6972C26.6412 56.5266 25.901 64.0415 27.3432 71.2915C28.7853 78.5415 32.3449 85.2011 37.5719 90.4281C42.7989 95.6551 49.4585 99.2147 56.7085 100.657C63.9586 102.099 71.4734 101.359 78.3028 98.53C85.1322 95.7012 90.9694 90.9107 95.0762 84.7644C99.183 78.6181 101.375 71.3921 101.375 64C101.365 54.0907 97.4235 44.5903 90.4166 37.5834C83.4097 30.5765 73.9093 26.6355 64 26.625ZM43.9074 88.4052C44.202 88.0458 44.4967 87.7116 44.777 87.3594C45.013 87.0642 45.1885 86.7254 45.2936 86.3624C45.3986 85.9993 45.4311 85.6192 45.3892 85.2436C45.3474 84.868 45.2319 84.5043 45.0495 84.1734C44.8671 83.8424 44.6212 83.5506 44.326 83.3146C44.0308 83.0786 43.6921 82.9031 43.329 82.7981C42.966 82.693 42.5858 82.6605 42.2102 82.7024C41.8347 82.7443 41.471 82.8597 41.14 83.0422C40.809 83.2246 40.5172 83.4704 40.2813 83.7656L39.7997 84.3478C34.9981 78.6549 32.3645 71.4474 32.3645 64C32.3645 56.5526 34.9981 49.3451 39.7997 43.6522L40.2813 44.2344C40.5172 44.5296 40.809 44.7754 41.14 44.9578C41.471 45.1403 41.8347 45.2557 42.2102 45.2976C42.5858 45.3395 42.966 45.307 43.329 45.2019C43.6921 45.0969 44.0308 44.9214 44.326 44.6854C44.6212 44.4494 44.8671 44.1576 45.0495 43.8266C45.2319 43.4957 45.3474 43.132 45.3892 42.7564C45.4311 42.3808 45.3986 42.0007 45.2936 41.6376C45.1885 41.2746 45.013 40.9358 44.777 40.6406C44.4967 40.2812 44.202 39.9219 43.9074 39.5948C49.563 34.9275 56.6672 32.3747 64 32.3747C71.3329 32.3747 78.437 34.9275 84.0927 39.5948C83.798 39.9542 83.5033 40.2848 83.223 40.6406C82.987 40.9358 82.8115 41.2746 82.7065 41.6376C82.6014 42.0007 82.5689 42.3808 82.6108 42.7564C82.6527 43.132 82.7681 43.4957 82.9506 43.8266C83.133 44.1576 83.3788 44.4494 83.674 44.6854C83.9692 44.9214 84.308 45.0969 84.671 45.2019C85.034 45.307 85.4142 45.3395 85.7898 45.2976C86.1654 45.2557 86.529 45.1403 86.86 44.9578C87.191 44.7754 87.4828 44.5296 87.7188 44.2344L88.2003 43.6522C93.0019 49.3451 95.6356 56.5526 95.6356 64C95.6356 71.4474 93.0019 78.6549 88.2003 84.3478L87.7188 83.7656C87.4875 83.4577 87.1966 83.1994 86.8636 83.0061C86.5306 82.8127 86.162 82.6883 85.78 82.64C85.3979 82.5919 85.01 82.6209 84.6394 82.7255C84.2688 82.8301 83.9229 83.008 83.6224 83.2488C83.3219 83.4897 83.0728 83.7884 82.8899 84.1273C82.707 84.4662 82.5941 84.8384 82.5579 85.2218C82.5216 85.6052 82.5628 85.992 82.6789 86.3592C82.795 86.7264 82.9837 87.0665 83.2338 87.3594C83.5141 87.7188 83.8088 88.0602 84.1035 88.4052C78.4478 93.0725 71.3437 95.6253 64.0108 95.6253C56.6779 95.6253 49.5738 93.0725 43.9181 88.4052H43.9074ZM52.4605 70.2244C52.1033 72.345 51.5647 74.4311 50.8505 76.4595C50.596 77.1787 50.0663 77.7672 49.3778 78.0958C48.6894 78.4244 47.8986 78.466 47.1795 78.2115C46.4603 77.957 45.8718 77.4273 45.5432 76.7388C45.2146 76.0504 45.173 75.2596 45.4275 74.5405C46.0334 72.8284 46.4891 71.0668 46.7895 69.2756C46.8487 68.9005 46.9817 68.5408 47.1807 68.2173C47.3797 67.8938 47.6408 67.613 47.949 67.391C48.2571 67.169 48.6062 67.0102 48.9761 66.9239C49.3459 66.8376 49.7292 66.8255 50.1038 66.8881C50.4784 66.9508 50.8369 67.0871 51.1585 67.2891C51.4801 67.491 51.7585 67.7548 51.9776 68.065C52.1968 68.3752 52.3523 68.7257 52.4351 69.0964C52.518 69.467 52.5266 69.8504 52.4605 70.2244ZM52.4605 57.7756C52.5863 58.5276 52.4082 59.2988 51.9654 59.9195C51.5226 60.5402 50.8514 60.9596 50.0994 61.0855C49.9425 61.1109 49.7839 61.1242 49.625 61.125C48.9454 61.1241 48.2881 60.8825 47.7697 60.443C47.2512 60.0036 46.9053 59.3947 46.7931 58.7244C46.4927 56.9332 46.037 55.1716 45.4311 53.4595C45.1766 52.7404 45.2182 51.9496 45.5468 51.2612C45.8753 50.5727 46.4639 50.043 47.1831 49.7885C47.9022 49.534 48.693 49.5756 49.3814 49.9042C50.0699 50.2328 50.5996 50.8213 50.8541 51.5405C51.5671 53.569 52.1045 55.6551 52.4605 57.7756ZM80.8188 78.2097C80.1001 78.464 79.3098 78.4226 78.6218 78.0944C77.9337 77.7662 77.4041 77.1781 77.1495 76.4595C76.4353 74.4311 75.8967 72.345 75.5395 70.2244C75.4734 69.8504 75.482 69.467 75.5649 69.0964C75.6478 68.7257 75.8033 68.3752 76.0224 68.065C76.2415 67.7548 76.5199 67.491 76.8416 67.2891C77.1632 67.0871 77.5216 66.9508 77.8962 66.8881C78.2708 66.8255 78.6541 66.8376 79.024 66.9239C79.3938 67.0102 79.7429 67.169 80.0511 67.391C80.3592 67.613 80.6204 67.8938 80.8194 68.2173C81.0184 68.5408 81.1513 68.9005 81.2105 69.2756C81.5109 71.0668 81.9666 72.8284 82.5725 74.5405C82.6984 74.8965 82.7529 75.2739 82.7328 75.6511C82.7128 76.0282 82.6187 76.3977 82.4558 76.7384C82.2929 77.0792 82.0645 77.3845 81.7837 77.6369C81.5028 77.8894 81.1749 78.084 80.8188 78.2097ZM75.5395 57.7756C75.8967 55.655 76.4353 53.5689 77.1495 51.5405C77.404 50.8213 77.9338 50.2328 78.6222 49.9042C79.3107 49.5756 80.1014 49.534 80.8206 49.7885C81.5397 50.043 82.1283 50.5727 82.4568 51.2612C82.7854 51.9496 82.827 52.7404 82.5725 53.4595C81.9666 55.1716 81.5109 56.9332 81.2105 58.7244C81.0982 59.3953 80.7518 60.0047 80.2326 60.4442C79.7134 60.8837 79.0553 61.125 78.375 61.125C78.2149 61.1243 78.0551 61.1111 77.897 61.0855C77.1457 60.9588 76.4754 60.539 76.0333 59.9184C75.5913 59.2978 75.4137 58.5271 75.5395 57.7756Z" fill="black"/>
</svg>
