<svg width="128" height="128" viewBox="0 0 128 128" fill="none" xmlns="http://www.w3.org/2000/svg">
<rect width="128" height="128" fill="#E7FE54"/>
<path d="M64 23.75C43.3898 23.75 26.625 39.8716 26.625 59.6875C26.625 71.9422 33.1908 83.4062 43.875 89.9756V95.625C43.875 97.15 44.4808 98.6125 45.5591 99.6909C46.6375 100.769 48.1 101.375 49.625 101.375H52.5C52.8812 101.375 53.2469 101.224 53.5165 100.954C53.7861 100.684 53.9375 100.319 53.9375 99.9375V89.972C53.9275 89.2301 54.1988 88.5119 54.6969 87.9618C55.1949 87.4118 55.8827 87.0707 56.622 87.0072C57.0153 86.9811 57.4097 87.0361 57.7808 87.1688C58.1519 87.3016 58.4918 87.5092 58.7792 87.7788C59.0667 88.0485 59.2957 88.3743 59.4519 88.7361C59.6082 89.098 59.6884 89.4881 59.6875 89.8822V99.9447C59.6875 100.326 59.8389 100.692 60.1085 100.961C60.3781 101.231 60.7438 101.382 61.125 101.382H66.875C67.2562 101.382 67.6219 101.231 67.8915 100.961C68.1611 100.692 68.3125 100.326 68.3125 99.9447V89.972C68.3025 89.2301 68.5738 88.5119 69.0719 87.9618C69.5699 87.4118 70.2577 87.0707 70.997 87.0072C71.3903 86.9811 71.7847 87.0361 72.1558 87.1688C72.5269 87.3016 72.8668 87.5092 73.1542 87.7788C73.4417 88.0485 73.6707 88.3743 73.8269 88.7361C73.9832 89.098 74.0634 89.4881 74.0625 89.8822V99.9447C74.0625 100.326 74.2139 100.692 74.4835 100.961C74.7531 101.231 75.1188 101.382 75.5 101.382H78.375C79.9 101.382 81.3625 100.776 82.4409 99.6981C83.5192 98.6197 84.125 97.1572 84.125 95.6322V89.9756C94.8092 83.4062 101.375 71.9422 101.375 59.6875C101.375 39.8716 84.6102 23.75 64 23.75ZM51.0625 72.625C49.6409 72.625 48.2513 72.2035 47.0693 71.4137C45.8874 70.6239 44.9661 69.5014 44.4221 68.188C43.8781 66.8747 43.7358 65.4295 44.0131 64.0353C44.2904 62.641 44.975 61.3604 45.9802 60.3552C46.9854 59.35 48.266 58.6654 49.6603 58.3881C51.0545 58.1108 52.4997 58.2531 53.813 58.7971C55.1264 59.3411 56.2489 60.2624 57.0387 61.4443C57.8285 62.6263 58.25 64.0159 58.25 65.4375C58.25 67.3437 57.4927 69.1719 56.1448 70.5198C54.7969 71.8677 52.9687 72.625 51.0625 72.625ZM76.9375 72.625C75.5159 72.625 74.1263 72.2035 72.9443 71.4137C71.7624 70.6239 70.8411 69.5014 70.2971 68.188C69.7531 66.8747 69.6108 65.4295 69.8881 64.0353C70.1654 62.641 70.85 61.3604 71.8552 60.3552C72.8604 59.35 74.141 58.6654 75.5353 58.3881C76.9295 58.1108 78.3747 58.2531 79.688 58.7971C81.0014 59.3411 82.1239 60.2624 82.9137 61.4443C83.7035 62.6263 84.125 64.0159 84.125 65.4375C84.125 67.3437 83.3677 69.1719 82.0198 70.5198C80.6719 71.8677 78.8437 72.625 76.9375 72.625Z" fill="#0F172A"/>
</svg>
