<svg width="128" height="128" viewBox="0 0 128 128" fill="none" xmlns="http://www.w3.org/2000/svg">
<rect width="128" height="128" fill="white"/>
<g clip-path="url(#clip0_126_25)">
<path d="M85.875 68.375C85.8806 69.2669 85.6096 70.1386 85.0993 70.8702C84.5891 71.6017 83.8647 72.1572 83.0258 72.4602L68.9027 77.6555L63.7074 91.7676C63.3998 92.6034 62.8431 93.3247 62.1126 93.8343C61.3821 94.3438 60.5129 94.617 59.6223 94.617C58.7316 94.617 57.8624 94.3438 57.1319 93.8343C56.4014 93.3247 55.8448 92.6034 55.5371 91.7676L50.3281 77.6719L36.2133 72.4766C35.3775 72.1689 34.6561 71.6123 34.1466 70.8818C33.6371 70.1513 33.3639 69.2821 33.3639 68.3914C33.3639 67.5008 33.6371 66.6315 34.1466 65.901C34.6561 65.1705 35.3775 64.6139 36.2133 64.3062L50.3363 59.1109L55.5316 44.9988C55.8393 44.163 56.3959 43.4417 57.1264 42.9321C57.8569 42.4226 58.7262 42.1494 59.6168 42.1494C60.5075 42.1494 61.3767 42.4226 62.1072 42.9321C62.8377 43.4417 63.3943 44.163 63.702 44.9988L68.8973 59.1219L83.0094 64.3172C83.8469 64.6158 84.5718 65.166 85.0847 65.8923C85.5977 66.6187 85.8737 67.4858 85.875 68.375ZM70.5625 42.125H74.9375V46.5C74.9375 47.0802 75.168 47.6366 75.5782 48.0468C75.9884 48.457 76.5448 48.6875 77.125 48.6875C77.7052 48.6875 78.2616 48.457 78.6718 48.0468C79.082 47.6366 79.3125 47.0802 79.3125 46.5V42.125H83.6875C84.2677 42.125 84.8241 41.8945 85.2343 41.4843C85.6445 41.0741 85.875 40.5177 85.875 39.9375C85.875 39.3573 85.6445 38.8009 85.2343 38.3907C84.8241 37.9805 84.2677 37.75 83.6875 37.75H79.3125V33.375C79.3125 32.7948 79.082 32.2384 78.6718 31.8282C78.2616 31.418 77.7052 31.1875 77.125 31.1875C76.5448 31.1875 75.9884 31.418 75.5782 31.8282C75.168 32.2384 74.9375 32.7948 74.9375 33.375V37.75H70.5625C69.9823 37.75 69.4259 37.9805 69.0157 38.3907C68.6055 38.8009 68.375 39.3573 68.375 39.9375C68.375 40.5177 68.6055 41.0741 69.0157 41.4843C69.4259 41.8945 69.9823 42.125 70.5625 42.125ZM94.625 50.875H92.4375V48.6875C92.4375 48.1073 92.207 47.5509 91.7968 47.1407C91.3866 46.7305 90.8302 46.5 90.25 46.5C89.6698 46.5 89.1134 46.7305 88.7032 47.1407C88.293 47.5509 88.0625 48.1073 88.0625 48.6875V50.875H85.875C85.2948 50.875 84.7384 51.1055 84.3282 51.5157C83.918 51.9259 83.6875 52.4823 83.6875 53.0625C83.6875 53.6427 83.918 54.1991 84.3282 54.6093C84.7384 55.0195 85.2948 55.25 85.875 55.25H88.0625V57.4375C88.0625 58.0177 88.293 58.5741 88.7032 58.9843C89.1134 59.3945 89.6698 59.625 90.25 59.625C90.8302 59.625 91.3866 59.3945 91.7968 58.9843C92.207 58.5741 92.4375 58.0177 92.4375 57.4375V55.25H94.625C95.2052 55.25 95.7616 55.0195 96.1718 54.6093C96.582 54.1991 96.8125 53.6427 96.8125 53.0625C96.8125 52.4823 96.582 51.9259 96.1718 51.5157C95.7616 51.1055 95.2052 50.875 94.625 50.875Z" fill="black"/>
</g>
<defs>
<clipPath id="clip0_126_25">
<rect width="70" height="70" fill="white" transform="translate(29 29)"/>
</clipPath>
</defs>
</svg>
