<svg width="128" height="128" viewBox="0 0 128 128" fill="none" xmlns="http://www.w3.org/2000/svg">
<rect width="128" height="128" fill="black"/>
<path d="M85.9834 23.5928C75.621 17.9554 63.4889 16.5143 52.0943 19.5676C40.3101 22.7252 30.2629 30.4347 24.163 41.0001C18.063 51.5656 16.41 64.1214 19.5675 75.9057C22.7251 87.6899 30.4346 97.7371 41.0001 103.837C51.5655 109.937 64.1214 111.59 75.9056 108.433C87.6898 105.275 97.737 97.5654 103.837 86.9999C109.937 76.4345 111.59 63.8786 108.432 52.0944C106.818 46.0699 103.996 40.4366 100.136 35.5369C96.2773 30.6372 91.462 26.5735 85.9834 23.5928ZM62.1321 36.8074C63.3029 37.4834 63.7014 38.9706 63.0255 40.1414L58.4703 48.0312L80.5937 60.8041L85.1207 52.963C85.7967 51.7922 87.2841 51.3945 88.455 52.0706C89.6258 52.7466 90.0241 54.2329 89.3481 55.4037L69.2013 90.299C68.5253 91.4699 67.0386 91.8687 65.8678 91.1927C64.6969 90.5167 64.2979 89.0292 64.9739 87.8583L69.5006 80.0178L47.3773 67.2449L42.8786 75.0367C42.2027 76.2076 40.7158 76.6055 39.5449 75.9295C38.3741 75.2535 37.9758 73.7672 38.6518 72.5964L58.7986 37.701C59.4746 36.5302 60.9612 36.1314 62.1321 36.8074ZM56.0299 52.2581L49.8177 63.018L71.941 75.791L78.1533 65.031L56.0299 52.2581Z" fill="#1ED760"/>
</svg>
