<svg width="128" height="128" viewBox="0 0 128 128" fill="none" xmlns="http://www.w3.org/2000/svg">
<rect width="128" height="128" fill="#27272A"/>
<path d="M79.9375 25.75H48.0625C42.1468 25.7563 36.4752 28.1091 32.2922 32.2922C28.1091 36.4752 25.7563 42.1468 25.75 48.0625V79.9375C25.7563 85.8532 28.1091 91.5248 32.2922 95.7078C36.4752 99.8909 42.1468 102.244 48.0625 102.25H67.1875C67.5301 102.25 67.8704 102.194 68.1955 102.087C78.6466 98.6003 98.6003 78.6466 102.087 68.1955C102.194 67.8704 102.25 67.5301 102.25 67.1875V48.0625C102.244 42.1468 99.8909 36.4752 95.7078 32.2922C91.5248 28.1091 85.8532 25.7563 79.9375 25.75ZM67.1875 95.6439V83.125C67.1875 78.8981 68.8666 74.8443 71.8555 71.8555C74.8443 68.8666 78.8981 67.1875 83.125 67.1875H95.6439C91.9544 75.7738 75.7738 91.9544 67.1875 95.6439Z" fill="#FFA3FD"/>
</svg>
