<svg width="128" height="128" viewBox="0 0 128 128" fill="none" xmlns="http://www.w3.org/2000/svg">
<rect width="128" height="128" fill="#3D3D3D"/>
<g clip-path="url(#clip0_122_87)">
<path d="M72.6244 68.9787V39.9724C72.6244 37.6518 71.7025 35.4262 70.0616 33.7852C68.4206 32.1443 66.195 31.2224 63.8744 31.2224C61.5537 31.2224 59.3281 32.1443 57.6872 33.7852C56.0463 35.4262 55.1244 37.6518 55.1244 39.9724V68.9787C52.4491 70.8415 50.4382 73.5095 49.3842 76.5944C48.3303 79.6792 48.2884 83.02 49.2646 86.1303C50.2408 89.2407 52.1842 91.9583 54.8119 93.8876C57.4396 95.817 60.6144 96.8574 63.8744 96.8574C67.1343 96.8574 70.3092 95.817 72.9369 93.8876C75.5646 91.9583 77.508 89.2407 78.4842 86.1303C79.4604 83.02 79.4185 79.6792 78.3646 76.5944C77.3106 73.5095 75.2997 70.8415 72.6244 68.9787ZM63.8744 35.5974C65.0347 35.5974 66.1475 36.0583 66.968 36.8788C67.7885 37.6993 68.2494 38.8121 68.2494 39.9724V50.9099H59.4994V39.9724C59.4994 38.8121 59.9603 37.6993 60.7808 36.8788C61.6013 36.0583 62.7141 35.5974 63.8744 35.5974Z" fill="#06D6A0"/>
</g>
<defs>
<clipPath id="clip0_122_87">
<rect width="70" height="70" fill="white" transform="translate(29 29)"/>
</clipPath>
</defs>
</svg>
