<svg width="128" height="128" viewBox="0 0 128 128" fill="none" xmlns="http://www.w3.org/2000/svg">
<rect width="128" height="128" fill="#FFA116"/>
<path d="M64 23.3594C55.9621 23.3594 48.1046 25.7429 41.4213 30.2086C34.738 34.6742 29.529 41.0214 26.453 48.4475C23.377 55.8736 22.5722 64.0451 24.1403 71.9286C25.7084 79.8121 29.5791 87.0536 35.2628 92.7373C40.9464 98.421 48.1879 102.292 56.0714 103.86C63.9549 105.428 72.1264 104.623 79.5525 101.547C86.9786 98.4711 93.3258 93.262 97.7915 86.5787C102.257 79.8954 104.641 72.038 104.641 64C104.628 53.2253 100.342 42.8956 92.7233 35.2767C85.1044 27.6579 74.7747 23.372 64 23.3594ZM99.7797 61.6094H82.2803C81.8221 49.3694 77.8617 37.7709 71.148 28.8578C78.8449 30.4357 85.8124 34.4929 90.9836 40.4082C96.1548 46.3235 99.2445 53.7707 99.7797 61.6094ZM64 99.8594C63.9007 99.8599 63.8023 99.8392 63.7116 99.7987C63.6209 99.7582 63.5399 99.6987 63.4741 99.6243C55.6806 91.2292 51.0189 79.2243 50.501 66.3906H77.4951C76.9811 79.2243 72.3154 91.2292 64.526 99.6243C64.4601 99.6987 64.3791 99.7582 64.2884 99.7987C64.1977 99.8392 64.0994 99.8599 64 99.8594ZM50.501 61.6094C51.0189 48.7757 55.6806 36.7708 63.4741 28.3757C63.5402 28.3017 63.6213 28.2424 63.7119 28.2018C63.8025 28.1613 63.9007 28.1403 64 28.1403C64.0993 28.1403 64.1975 28.1613 64.2881 28.2018C64.3788 28.2424 64.4598 28.3017 64.526 28.3757C72.3194 36.7708 76.9811 48.7757 77.4951 61.6094H50.501ZM56.852 28.8578C50.1384 37.7709 46.1779 49.3694 45.7197 61.6094H28.2203C28.7555 53.7707 31.8453 46.3235 37.0165 40.4082C42.1877 34.4929 49.1552 30.4357 56.852 28.8578ZM28.2203 66.3906H45.7197C46.1779 78.6306 50.1384 90.2291 56.852 99.1422C49.1552 97.5643 42.1877 93.5071 37.0165 87.5918C31.8453 81.6765 28.7555 74.2293 28.2203 66.3906ZM71.148 99.1422C77.8617 90.2291 81.8221 78.6306 82.2803 66.3906H99.7797C99.2445 74.2293 96.1548 81.6765 90.9836 87.5918C85.8124 93.5071 78.8449 97.5643 71.148 99.1422Z" fill="white"/>
</svg>
