<svg width="1979" height="193" viewBox="0 0 1979 193" fill="none" xmlns="http://www.w3.org/2000/svg">
<path d="M402.608 85V43.4H413.808C419.781 43.4 424.347 45.192 427.504 48.776C430.704 52.3173 432.304 57.4587 432.304 64.2C432.304 70.9413 430.725 76.104 427.568 79.688C424.453 83.2293 419.931 85 414 85H402.608ZM410.288 77.96H413.424C417.221 77.96 420.016 76.8507 421.808 74.632C423.6 72.3707 424.496 68.8933 424.496 64.2C424.496 59.5067 423.6 56.0507 421.808 53.832C420.016 51.5707 417.221 50.44 413.424 50.44H410.288V77.96ZM436.021 85L449.717 43.4H457.653L471.349 85H463.285L460.341 75.784H446.645L443.701 85H436.021ZM448.821 68.744H458.165L453.493 53.448L448.821 68.744ZM486.97 85V67.144L472.89 43.4H482.042L491.13 59.592L500.282 43.4H508.73L494.65 67.144V85H486.97ZM527.551 85.768C524.564 85.768 521.791 85.3627 519.231 84.552C516.671 83.6987 514.324 82.376 512.191 80.584L516.095 74.376C517.759 75.8267 519.551 76.8933 521.471 77.576C523.434 78.2587 525.524 78.6 527.743 78.6C532.778 78.6 535.295 76.808 535.295 73.224C535.295 71.8587 534.932 70.8347 534.207 70.152C533.524 69.4267 532.33 68.8507 530.623 68.424L523.903 66.76C520.447 65.9067 517.887 64.5627 516.223 62.728C514.602 60.8507 513.791 58.3547 513.791 55.24C513.791 51.3147 515.092 48.2427 517.695 46.024C520.298 43.7627 523.946 42.632 528.639 42.632C533.716 42.632 538.218 44.0187 542.143 46.792L538.495 53.128C535.764 50.9093 532.479 49.8 528.639 49.8C523.903 49.8 521.535 51.4853 521.535 54.856C521.535 56.0507 521.876 57.0107 522.559 57.736C523.284 58.4187 524.5 58.9733 526.207 59.4L532.927 61.064C536.383 61.9173 538.922 63.2827 540.543 65.16C542.207 66.9947 543.039 69.5547 543.039 72.84C543.039 76.8507 541.674 80.008 538.943 82.312C536.255 84.616 532.458 85.768 527.551 85.768ZM602.185 85.768C596.894 85.768 592.884 83.9547 590.153 80.328C587.422 76.6587 586.057 71.2827 586.057 64.2C586.057 57.0747 587.422 51.6987 590.153 48.072C592.884 44.4453 596.894 42.632 602.185 42.632C607.518 42.632 611.529 44.4453 614.217 48.072C616.948 51.6987 618.313 57.0747 618.313 64.2C618.313 71.2827 616.948 76.6587 614.217 80.328C611.529 83.9547 607.518 85.768 602.185 85.768ZM602.185 78.6C607.732 78.6 610.505 73.8 610.505 64.2C610.505 54.6 607.732 49.8 602.185 49.8C596.638 49.8 593.865 54.6 593.865 64.2C593.865 73.8 596.638 78.6 602.185 78.6ZM627.022 85V43.4H654.35V50.44H634.702V60.808H651.278V67.848H634.702V85H627.022ZM715.992 85.768C710.36 85.768 706.051 83.9333 703.064 80.264C700.12 76.552 698.648 71.1973 698.648 64.2C698.648 57.2027 700.12 51.8693 703.064 48.2C706.051 44.488 710.36 42.632 715.992 42.632C720.685 42.632 724.739 44.1467 728.152 47.176L724.248 53.128C721.773 50.9093 719.043 49.8 716.056 49.8C709.656 49.8 706.456 54.6 706.456 64.2C706.456 73.8 709.656 78.6 716.056 78.6C717.763 78.6 719.341 78.2587 720.792 77.576C722.243 76.8933 723.693 75.8267 725.144 74.376L729.496 79.944C727.533 81.9493 725.485 83.4213 723.352 84.36C721.219 85.2987 718.765 85.768 715.992 85.768ZM750.685 85.768C745.394 85.768 741.384 83.9547 738.653 80.328C735.922 76.6587 734.557 71.2827 734.557 64.2C734.557 57.0747 735.922 51.6987 738.653 48.072C741.384 44.4453 745.394 42.632 750.685 42.632C756.018 42.632 760.029 44.4453 762.717 48.072C765.448 51.6987 766.813 57.0747 766.813 64.2C766.813 71.2827 765.448 76.6587 762.717 80.328C760.029 83.9547 756.018 85.768 750.685 85.768ZM750.685 78.6C756.232 78.6 759.005 73.8 759.005 64.2C759.005 54.6 756.232 49.8 750.685 49.8C745.138 49.8 742.365 54.6 742.365 64.2C742.365 73.8 745.138 78.6 750.685 78.6ZM773.858 85V43.4H785.058C791.031 43.4 795.597 45.192 798.754 48.776C801.954 52.3173 803.554 57.4587 803.554 64.2C803.554 70.9413 801.975 76.104 798.818 79.688C795.703 83.2293 791.181 85 785.25 85H773.858ZM781.538 77.96H784.674C788.471 77.96 791.266 76.8507 793.058 74.632C794.85 72.3707 795.746 68.8933 795.746 64.2C795.746 59.5067 794.85 56.0507 793.058 53.832C791.266 51.5707 788.471 50.44 784.674 50.44H781.538V77.96ZM812.263 85V43.4H839.591V50.44H819.943V60.296H836.519V67.336H819.943V77.96H839.591V85H812.263Z" fill="white"/>
<path d="M424.234 156.033C416.659 156.033 410.863 153.565 406.846 148.63C402.886 143.638 400.906 136.436 400.906 127.024C400.906 117.613 402.886 110.44 406.846 105.505C410.863 100.512 416.659 98.0157 424.234 98.0157C430.546 98.0157 435.998 100.053 440.589 104.127L435.338 112.133C432.01 109.149 428.337 107.657 424.32 107.657C415.712 107.657 411.408 114.113 411.408 127.024C411.408 139.936 415.712 146.392 424.32 146.392C426.615 146.392 428.739 145.933 430.69 145.015C432.641 144.097 434.592 142.662 436.543 140.711L442.397 148.2C439.757 150.897 437.002 152.877 434.133 154.139C431.264 155.402 427.964 156.033 424.234 156.033ZM451.528 155V99.0487H461.857V121.774H479.934V99.0487H490.263V155H479.934V131.242H461.857V155H451.528ZM497.07 155L515.491 99.0487H526.165L544.586 155H533.74L529.78 142.605H511.359L507.4 155H497.07ZM514.286 133.136H526.853L520.57 112.563L514.286 133.136ZM554.233 155V99.0487H564.563V145.531H590.989V155H554.233ZM604.166 155V99.0487H614.495V145.531H640.921V155H604.166ZM653.582 155V99.0487H690.337V108.517H663.911V121.774H686.206V131.242H663.911V145.531H690.337V155H653.582ZM701.19 155V99.0487H712.725L730.629 135.804V99.0487H739.926V155H730.199L710.487 114.457V155H701.19ZM770.576 156.033C766.215 156.033 762.456 154.885 759.3 152.59C756.144 150.237 753.705 146.88 751.983 142.519C750.319 138.157 749.487 132.992 749.487 127.024C749.487 117.613 751.467 110.44 755.427 105.505C759.444 100.512 765.24 98.0157 772.815 98.0157C779.127 98.0157 784.579 100.053 789.17 104.127L783.919 112.133C780.59 109.149 776.918 107.657 772.901 107.657C764.293 107.657 759.989 114.113 759.989 127.024C759.989 139.936 764.207 146.392 772.642 146.392C775.512 146.392 778.065 145.56 780.303 143.896V131.845H771.093V122.376H790.633V155H783.747L782.8 151.213C781.021 152.877 779.127 154.111 777.118 154.914C775.11 155.66 772.929 156.033 770.576 156.033ZM803.379 155V99.0487H840.135V108.517H813.709V121.774H836.003V131.242H813.709V145.531H840.135V155H803.379Z" fill="white"/>
<path d="M15.9351 155L21.1903 125.334H3.7295L5.9333 112.111H23.3941L27.6322 88.0385H10.1714L12.3752 74.8157H30.0055L34.5826 48.2006H48.8226L44.2454 74.8157H63.0625L67.6396 48.2006H81.8795L77.3024 74.8157H94.5937L92.3899 88.0385H74.9291L70.691 112.111H88.1519L85.9481 125.334H68.4872L63.232 155H48.9921L54.2473 125.334H35.4303L30.1751 155H15.9351ZM37.6341 112.111H56.4511L60.6892 88.0385H41.8721L37.6341 112.111ZM107.83 155V136.692H137.666V78.8843L117.832 94.3108L108.338 81.2576L144.108 47.1835H158.008V136.692H187.844V155H107.83ZM245.835 157.034C232.386 157.034 222.045 152.344 214.812 142.964C207.692 133.471 204.132 119.683 204.132 101.6C204.132 83.5179 207.692 69.7865 214.812 60.4063C222.045 50.913 232.386 46.1664 245.835 46.1664C259.283 46.1664 269.568 50.913 276.688 60.4063C283.921 69.7865 287.537 83.5179 287.537 101.6C287.537 119.683 283.921 133.471 276.688 142.964C269.568 152.344 259.283 157.034 245.835 157.034ZM225.153 111.941L261.77 73.9681C258.266 67.8653 252.954 64.8139 245.835 64.8139C231.708 64.8139 224.644 77.076 224.644 101.6C224.644 105.217 224.814 108.664 225.153 111.941ZM245.835 138.387C259.961 138.387 267.025 126.125 267.025 101.6C267.025 97.8708 266.855 94.4239 266.516 91.2594L229.899 129.233C233.516 135.335 238.828 138.387 245.835 138.387ZM344.171 157.034C330.722 157.034 320.381 152.344 313.148 142.964C306.028 133.471 302.468 119.683 302.468 101.6C302.468 83.5179 306.028 69.7865 313.148 60.4063C320.381 50.913 330.722 46.1664 344.171 46.1664C357.62 46.1664 367.904 50.913 375.024 60.4063C382.257 69.7865 385.874 83.5179 385.874 101.6C385.874 119.683 382.257 133.471 375.024 142.964C367.904 152.344 357.62 157.034 344.171 157.034ZM323.489 111.941L360.106 73.9681C356.603 67.8653 351.291 64.8139 344.171 64.8139C330.044 64.8139 322.981 77.076 322.981 101.6C322.981 105.217 323.15 108.664 323.489 111.941ZM344.171 138.387C358.298 138.387 365.361 126.125 365.361 101.6C365.361 97.8708 365.192 94.4239 364.853 91.2594L328.236 129.233C331.852 135.335 337.164 138.387 344.171 138.387Z" fill="white"/>
<path d="M1079.01 61.98L1057.85 97.064L1080.88 134.5H1061.37L1048.24 113.136L1035.31 134.5H1016L1038.44 97.162L1016.88 61.98H1036.29L1048.14 81.188L1059.61 61.98H1079.01Z" fill="white"/>
<path d="M1387.47 33.5312C1387.04 33.1041 1386.54 32.7652 1385.98 32.5341C1385.42 32.3029 1384.82 32.1839 1384.22 32.1839C1383.62 32.1839 1383.02 32.3029 1382.46 32.5341C1381.9 32.7652 1381.4 33.1041 1380.97 33.5312L1350.88 63.626L1347.8 60.5367C1344.35 57.0968 1339.67 55.1652 1334.8 55.1652C1329.93 55.1652 1325.26 57.0968 1321.81 60.5367L1308.42 73.9275L1304.78 70.2812C1303.92 69.4192 1302.75 68.935 1301.53 68.935C1300.31 68.935 1299.14 69.4192 1298.28 70.2812C1297.42 71.1432 1296.93 72.3122 1296.93 73.5313C1296.93 74.7503 1297.42 75.9194 1298.28 76.7813L1301.93 80.4219L1288.54 93.8069C1286.83 95.5133 1285.48 97.5391 1284.55 99.7687C1283.63 101.998 1283.15 104.388 1283.15 106.801C1283.15 109.215 1283.63 111.605 1284.55 113.834C1285.48 116.064 1286.83 118.09 1288.54 119.796L1291.63 122.88L1261.53 152.969C1261.1 153.395 1260.77 153.902 1260.53 154.46C1260.3 155.017 1260.18 155.615 1260.18 156.219C1260.18 156.822 1260.3 157.42 1260.53 157.978C1260.77 158.535 1261.1 159.042 1261.53 159.469C1262.39 160.331 1263.56 160.815 1264.78 160.815C1265.38 160.815 1265.98 160.696 1266.54 160.465C1267.1 160.234 1267.6 159.896 1268.03 159.469L1298.12 129.374L1301.2 132.463C1304.65 135.902 1309.33 137.832 1314.2 137.832C1319.07 137.832 1323.74 135.902 1327.19 132.463L1340.58 119.073L1344.22 122.719C1344.65 123.146 1345.15 123.484 1345.71 123.715C1346.27 123.946 1346.87 124.065 1347.47 124.065C1348.07 124.065 1348.67 123.946 1349.23 123.715C1349.79 123.484 1350.29 123.146 1350.72 122.719C1351.15 122.292 1351.48 121.785 1351.72 121.228C1351.95 120.67 1352.07 120.072 1352.07 119.469C1352.07 118.865 1351.95 118.267 1351.72 117.71C1351.48 117.152 1351.15 116.645 1350.72 116.219L1347.07 112.578L1360.46 99.1931C1362.17 97.4868 1363.52 95.4609 1364.45 93.2313C1365.37 91.0017 1365.85 88.6119 1365.85 86.1985C1365.85 83.7851 1365.37 81.3954 1364.45 79.1657C1363.52 76.9361 1362.17 74.9103 1360.46 73.204L1357.37 70.1204L1387.47 40.0313C1387.9 39.6047 1388.23 39.0981 1388.47 38.5404C1388.7 37.9827 1388.82 37.385 1388.82 36.7813C1388.82 36.1776 1388.7 35.5798 1388.47 35.0221C1388.23 34.4645 1387.9 33.9578 1387.47 33.5312ZM1353.96 92.6757L1340.58 106.084L1314.92 80.4219L1328.31 67.0369C1330.03 65.3152 1332.37 64.348 1334.8 64.348C1337.24 64.348 1339.57 65.3152 1341.3 67.0369L1353.96 79.6697C1354.82 80.5228 1355.49 81.5357 1355.96 82.6506C1356.42 83.7654 1356.65 84.9602 1356.65 86.1669C1356.65 87.3736 1356.42 88.5685 1355.96 89.6833C1355.49 90.7981 1354.82 91.8111 1353.96 92.6642V92.6757ZM1301.77 42.8278C1301.38 41.6719 1301.47 40.4103 1302.02 39.3205C1302.56 38.2307 1303.52 37.402 1304.67 37.0167C1305.83 36.6314 1307.09 36.7211 1308.18 37.2659C1309.27 37.8108 1310.1 38.7663 1310.48 39.9222L1315.08 53.7035C1315.27 54.2758 1315.34 54.8801 1315.3 55.4819C1315.26 56.0837 1315.1 56.6712 1314.83 57.2108C1314.56 57.7504 1314.18 58.2316 1313.73 58.6269C1313.27 59.0222 1312.74 59.3238 1312.17 59.5146C1311.02 59.8999 1309.75 59.8102 1308.66 59.2653C1308.12 58.9955 1307.64 58.6221 1307.25 58.1663C1306.85 57.7105 1306.55 57.1814 1306.36 56.609L1301.77 42.8278ZM1265.02 76.6722C1265.21 76.0999 1265.51 75.5707 1265.9 75.1149C1266.3 74.6591 1266.78 74.2856 1267.32 74.0158C1267.86 73.746 1268.45 73.5851 1269.05 73.5424C1269.65 73.4997 1270.26 73.5759 1270.83 73.7667L1284.61 78.3604C1285.18 78.5512 1285.71 78.8529 1286.17 79.2482C1286.62 79.6434 1287 80.1246 1287.27 80.6642C1287.54 81.2038 1287.7 81.7913 1287.74 82.3931C1287.78 82.9949 1287.71 83.5992 1287.51 84.1715C1287.32 84.7439 1287.02 85.273 1286.63 85.7288C1286.23 86.1846 1285.75 86.558 1285.21 86.8278C1284.67 87.0976 1284.08 87.2585 1283.48 87.3013C1282.88 87.344 1282.28 87.2679 1281.7 87.0771L1267.92 82.4833C1267.35 82.2926 1266.82 81.991 1266.36 81.5957C1265.91 81.2004 1265.54 80.7192 1265.27 80.1796C1265 79.64 1264.84 79.0525 1264.79 78.4507C1264.75 77.8489 1264.83 77.2446 1265.02 76.6722ZM1383.98 116.328C1383.79 116.9 1383.49 117.429 1383.1 117.885C1382.7 118.341 1382.22 118.714 1381.68 118.984C1381.14 119.254 1380.55 119.415 1379.95 119.458C1379.35 119.5 1378.74 119.424 1378.17 119.233L1364.39 114.64C1363.24 114.254 1362.28 113.426 1361.73 112.336C1361.19 111.246 1361.1 109.984 1361.49 108.828C1361.87 107.673 1362.7 106.717 1363.79 106.172C1364.88 105.627 1366.14 105.538 1367.3 105.923L1381.08 110.517C1381.65 110.707 1382.18 111.009 1382.64 111.404C1383.09 111.8 1383.46 112.281 1383.73 112.82C1384 113.36 1384.16 113.948 1384.21 114.549C1384.25 115.151 1384.17 115.755 1383.98 116.328ZM1347.23 150.172C1347.62 151.328 1347.53 152.59 1346.98 153.68C1346.44 154.769 1345.48 155.598 1344.33 155.983C1343.17 156.369 1341.91 156.279 1340.82 155.734C1339.73 155.189 1338.9 154.234 1338.52 153.078L1333.92 139.297C1333.54 138.141 1333.63 136.879 1334.17 135.789C1334.72 134.699 1335.67 133.871 1336.83 133.485C1337.98 133.1 1339.25 133.19 1340.34 133.735C1341.43 134.28 1342.25 135.235 1342.64 136.391L1347.23 150.172Z" fill="white"/>
<path d="M1451.59 131.5V60.2273H1482.36C1487.65 60.2273 1492.28 61.2713 1496.24 63.3594C1500.21 65.4474 1503.3 68.3823 1505.5 72.1641C1507.7 75.9458 1508.81 80.3655 1508.81 85.4233C1508.81 90.5275 1507.67 94.9472 1505.4 98.6825C1503.15 102.418 1499.98 105.295 1495.9 107.313C1491.84 109.332 1487.09 110.341 1481.66 110.341H1463.29V95.3068H1477.76C1480.04 95.3068 1481.98 94.9124 1483.58 94.1236C1485.2 93.3116 1486.44 92.1631 1487.3 90.6783C1488.18 89.1934 1488.62 87.4418 1488.62 85.4233C1488.62 83.3816 1488.18 81.6416 1487.3 80.2031C1486.44 78.7415 1485.2 77.6278 1483.58 76.8622C1481.98 76.0734 1480.04 75.679 1477.76 75.679H1470.94V131.5H1451.59ZM1516.18 131.5V78.0455H1534.84V88.2074H1535.39C1536.37 84.4489 1537.91 81.6996 1540.02 79.9595C1542.16 78.2195 1544.65 77.3494 1547.51 77.3494C1548.34 77.3494 1549.16 77.419 1549.98 77.5582C1550.81 77.6742 1551.61 77.8482 1552.38 78.0803V94.4716C1551.43 94.1468 1550.25 93.9032 1548.86 93.7408C1547.47 93.5784 1546.28 93.4972 1545.28 93.4972C1543.4 93.4972 1541.71 93.9264 1540.2 94.7848C1538.71 95.62 1537.54 96.8033 1536.68 98.3345C1535.82 99.8426 1535.39 101.617 1535.39 103.659V131.5H1516.18ZM1581.37 132.474C1575.57 132.474 1570.6 131.326 1566.47 129.029C1562.34 126.709 1559.18 123.484 1556.97 119.354C1554.77 115.201 1553.67 110.387 1553.67 104.912C1553.67 99.4366 1554.77 94.634 1556.97 90.5043C1559.18 86.3513 1562.34 83.1264 1566.47 80.8295C1570.6 78.5095 1575.57 77.3494 1581.37 77.3494C1587.17 77.3494 1592.13 78.5095 1596.26 80.8295C1600.39 83.1264 1603.56 86.3513 1605.76 90.5043C1607.97 94.634 1609.07 99.4366 1609.07 104.912C1609.07 110.387 1607.97 115.201 1605.76 119.354C1603.56 123.484 1600.39 126.709 1596.26 129.029C1592.13 131.326 1587.17 132.474 1581.37 132.474ZM1581.51 118.276C1583.13 118.276 1584.53 117.73 1585.72 116.64C1586.9 115.549 1587.82 113.995 1588.47 111.977C1589.12 109.958 1589.44 107.557 1589.44 104.773C1589.44 101.965 1589.12 99.5642 1588.47 97.5689C1587.82 95.5504 1586.9 93.996 1585.72 92.9055C1584.53 91.8151 1583.13 91.2699 1581.51 91.2699C1579.79 91.2699 1578.32 91.8151 1577.09 92.9055C1575.86 93.996 1574.92 95.5504 1574.27 97.5689C1573.62 99.5642 1573.29 101.965 1573.29 104.773C1573.29 107.557 1573.62 109.958 1574.27 111.977C1574.92 113.995 1575.86 115.549 1577.09 116.64C1578.32 117.73 1579.79 118.276 1581.51 118.276ZM1631.61 78.0455L1639.41 94.6108L1647.62 78.0455H1666.69L1652.35 104.773L1667.39 131.5H1648.46L1639.41 114.517L1630.64 131.5H1611.43L1626.6 104.773L1612.4 78.0455H1631.61ZM1685.21 151.545C1683.01 151.545 1680.91 151.371 1678.91 151.023C1676.92 150.699 1675.17 150.246 1673.66 149.666L1677.84 136.024C1679.41 136.581 1680.85 136.941 1682.15 137.103C1683.47 137.265 1684.6 137.173 1685.53 136.825C1686.48 136.477 1687.16 135.815 1687.58 134.841L1688 133.866L1669.21 78.0455H1689.25L1697.88 115.074H1698.44L1707.21 78.0455H1727.39L1707.9 135.955C1706.93 138.901 1705.51 141.546 1703.66 143.889C1701.83 146.256 1699.41 148.123 1696.42 149.492C1693.43 150.861 1689.69 151.545 1685.21 151.545ZM1818.64 86.9545H1799.01C1798.87 85.3305 1798.5 83.8572 1797.9 82.5348C1797.32 81.2124 1796.51 80.0755 1795.46 79.1243C1794.44 78.1499 1793.2 77.4074 1791.74 76.897C1790.28 76.3634 1788.62 76.0966 1786.76 76.0966C1783.52 76.0966 1780.77 76.8854 1778.52 78.4631C1776.29 80.0407 1774.59 82.3028 1773.43 85.2493C1772.3 88.1958 1771.73 91.7339 1771.73 95.8636C1771.73 100.225 1772.31 103.879 1773.47 106.826C1774.65 109.749 1776.36 111.953 1778.59 113.438C1780.81 114.9 1783.49 115.631 1786.62 115.631C1788.41 115.631 1790.01 115.41 1791.43 114.969C1792.84 114.505 1794.07 113.844 1795.12 112.986C1796.16 112.127 1797.01 111.095 1797.66 109.888C1798.33 108.659 1798.78 107.278 1799.01 105.747L1818.64 105.886C1818.41 108.902 1817.56 111.977 1816.1 115.109C1814.64 118.218 1812.56 121.094 1809.87 123.739C1807.2 126.361 1803.9 128.472 1799.95 130.073C1796.01 131.674 1791.43 132.474 1786.21 132.474C1779.66 132.474 1773.79 131.071 1768.6 128.263C1763.42 125.456 1759.33 121.326 1756.31 115.874C1753.32 110.422 1751.82 103.752 1751.82 95.8636C1751.82 87.929 1753.35 81.2472 1756.42 75.8182C1759.48 70.366 1763.61 66.2479 1768.81 63.4638C1774 60.6565 1779.8 59.2528 1786.21 59.2528C1790.71 59.2528 1794.85 59.8677 1798.63 61.0973C1802.41 62.3269 1805.73 64.125 1808.58 66.4915C1811.44 68.8348 1813.73 71.7232 1815.47 75.157C1817.21 78.5907 1818.27 82.5232 1818.64 86.9545ZM1846.91 60.2273V131.5H1827.7V60.2273H1846.91ZM1891.36 108.114V78.0455H1910.57V131.5H1892.33V121.338H1891.78C1890.62 124.749 1888.59 127.417 1885.69 129.342C1882.79 131.245 1879.34 132.196 1875.35 132.196C1871.61 132.196 1868.34 131.338 1865.54 129.621C1862.75 127.904 1860.58 125.537 1859.03 122.521C1857.5 119.505 1856.72 116.048 1856.7 112.151V78.0455H1875.91V108.114C1875.93 110.759 1876.6 112.835 1877.93 114.343C1879.27 115.851 1881.15 116.605 1883.56 116.605C1885.16 116.605 1886.54 116.269 1887.7 115.596C1888.89 114.9 1889.79 113.925 1890.42 112.673C1891.07 111.397 1891.38 109.877 1891.36 108.114ZM1920.06 131.5V60.2273H1939.27V87.3722H1939.55C1940.25 85.5625 1941.27 83.9036 1942.61 82.3956C1943.96 80.8643 1945.63 79.6463 1947.62 78.7415C1949.62 77.8134 1951.94 77.3494 1954.58 77.3494C1958.11 77.3494 1961.46 78.2891 1964.64 80.1683C1967.84 82.0476 1970.44 85.0057 1972.44 89.0426C1974.45 93.0795 1975.46 98.3229 1975.46 104.773C1975.46 110.944 1974.5 116.06 1972.58 120.12C1970.67 124.18 1968.12 127.208 1964.92 129.203C1961.74 131.198 1958.25 132.196 1954.44 132.196C1951.94 132.196 1949.7 131.79 1947.73 130.978C1945.78 130.143 1944.11 129.018 1942.72 127.602C1941.35 126.164 1940.29 124.54 1939.55 122.73H1939.13V131.5H1920.06ZM1938.85 104.773C1938.85 107.371 1939.19 109.622 1939.86 111.524C1940.56 113.403 1941.53 114.865 1942.79 115.909C1944.06 116.93 1945.58 117.44 1947.34 117.44C1949.11 117.44 1950.6 116.942 1951.83 115.944C1953.09 114.923 1954.04 113.473 1954.69 111.594C1955.36 109.691 1955.7 107.418 1955.7 104.773C1955.7 102.128 1955.36 99.8658 1954.69 97.9865C1954.04 96.084 1953.09 94.634 1951.83 93.6364C1950.6 92.6155 1949.11 92.1051 1947.34 92.1051C1945.58 92.1051 1944.06 92.6155 1942.79 93.6364C1941.53 94.634 1940.56 96.084 1939.86 97.9865C1939.19 99.8658 1938.85 102.128 1938.85 104.773Z" fill="white"/>
</svg>
