<svg width="938" height="624" viewBox="0 0 938 624" fill="none" xmlns="http://www.w3.org/2000/svg">
<path d="M448.608 85.0002V43.4002H459.808C465.781 43.4002 470.347 45.1922 473.504 48.7762C476.704 52.3176 478.304 57.4589 478.304 64.2002C478.304 70.9416 476.725 76.1042 473.568 79.6882C470.453 83.2296 465.931 85.0002 460 85.0002H448.608ZM456.288 77.9602H459.424C463.221 77.9602 466.016 76.8509 467.808 74.6322C469.6 72.3709 470.496 68.8936 470.496 64.2002C470.496 59.5069 469.6 56.0509 467.808 53.8322C466.016 51.5709 463.221 50.4402 459.424 50.4402H456.288V77.9602ZM482.021 85.0002L495.717 43.4002H503.653L517.349 85.0002H509.285L506.341 75.7842H492.645L489.701 85.0002H482.021ZM494.821 68.7442H504.165L499.493 53.4482L494.821 68.7442ZM532.97 85.0002V67.1442L518.89 43.4002H528.042L537.13 59.5922L546.282 43.4002H554.73L540.65 67.1442V85.0002H532.97ZM573.551 85.7682C570.564 85.7682 567.791 85.3629 565.231 84.5522C562.671 83.6989 560.324 82.3762 558.191 80.5842L562.095 74.3762C563.759 75.8269 565.551 76.8936 567.471 77.5762C569.434 78.2589 571.524 78.6002 573.743 78.6002C578.778 78.6002 581.295 76.8082 581.295 73.2242C581.295 71.8589 580.932 70.8349 580.207 70.1522C579.524 69.4269 578.33 68.8509 576.623 68.4242L569.903 66.7602C566.447 65.9069 563.887 64.5629 562.223 62.7282C560.602 60.8509 559.791 58.3549 559.791 55.2402C559.791 51.3149 561.092 48.2429 563.695 46.0242C566.298 43.7629 569.946 42.6322 574.639 42.6322C579.716 42.6322 584.218 44.0189 588.143 46.7922L584.495 53.1282C581.764 50.9096 578.479 49.8002 574.639 49.8002C569.903 49.8002 567.535 51.4856 567.535 54.8562C567.535 56.0509 567.876 57.0109 568.559 57.7362C569.284 58.4189 570.5 58.9736 572.207 59.4002L578.927 61.0642C582.383 61.9176 584.922 63.2829 586.543 65.1602C588.207 66.9949 589.039 69.5549 589.039 72.8402C589.039 76.8509 587.674 80.0082 584.943 82.3122C582.255 84.6162 578.458 85.7682 573.551 85.7682ZM648.185 85.7682C642.894 85.7682 638.884 83.9549 636.153 80.3282C633.422 76.6589 632.057 71.2829 632.057 64.2002C632.057 57.0749 633.422 51.6989 636.153 48.0722C638.884 44.4456 642.894 42.6322 648.185 42.6322C653.518 42.6322 657.529 44.4456 660.217 48.0722C662.948 51.6989 664.313 57.0749 664.313 64.2002C664.313 71.2829 662.948 76.6589 660.217 80.3282C657.529 83.9549 653.518 85.7682 648.185 85.7682ZM648.185 78.6002C653.732 78.6002 656.505 73.8002 656.505 64.2002C656.505 54.6002 653.732 49.8002 648.185 49.8002C642.638 49.8002 639.865 54.6002 639.865 64.2002C639.865 73.8002 642.638 78.6002 648.185 78.6002ZM673.022 85.0002V43.4002H700.35V50.4402H680.702V60.8082H697.278V67.8482H680.702V85.0002H673.022ZM761.992 85.7682C756.36 85.7682 752.051 83.9336 749.064 80.2642C746.12 76.5522 744.648 71.1976 744.648 64.2002C744.648 57.2029 746.12 51.8696 749.064 48.2002C752.051 44.4882 756.36 42.6322 761.992 42.6322C766.685 42.6322 770.739 44.1469 774.152 47.1762L770.248 53.1282C767.773 50.9096 765.043 49.8002 762.056 49.8002C755.656 49.8002 752.456 54.6002 752.456 64.2002C752.456 73.8002 755.656 78.6002 762.056 78.6002C763.763 78.6002 765.341 78.2589 766.792 77.5762C768.243 76.8936 769.693 75.8269 771.144 74.3762L775.496 79.9442C773.533 81.9496 771.485 83.4216 769.352 84.3602C767.219 85.2989 764.765 85.7682 761.992 85.7682ZM796.685 85.7682C791.394 85.7682 787.384 83.9549 784.653 80.3282C781.922 76.6589 780.557 71.2829 780.557 64.2002C780.557 57.0749 781.922 51.6989 784.653 48.0722C787.384 44.4456 791.394 42.6322 796.685 42.6322C802.018 42.6322 806.029 44.4456 808.717 48.0722C811.448 51.6989 812.813 57.0749 812.813 64.2002C812.813 71.2829 811.448 76.6589 808.717 80.3282C806.029 83.9549 802.018 85.7682 796.685 85.7682ZM796.685 78.6002C802.232 78.6002 805.005 73.8002 805.005 64.2002C805.005 54.6002 802.232 49.8002 796.685 49.8002C791.138 49.8002 788.365 54.6002 788.365 64.2002C788.365 73.8002 791.138 78.6002 796.685 78.6002ZM819.858 85.0002V43.4002H831.058C837.031 43.4002 841.597 45.1922 844.754 48.7762C847.954 52.3176 849.554 57.4589 849.554 64.2002C849.554 70.9416 847.975 76.1042 844.818 79.6882C841.703 83.2296 837.181 85.0002 831.25 85.0002H819.858ZM827.538 77.9602H830.674C834.471 77.9602 837.266 76.8509 839.058 74.6322C840.85 72.3709 841.746 68.8936 841.746 64.2002C841.746 59.5069 840.85 56.0509 839.058 53.8322C837.266 51.5709 834.471 50.4402 830.674 50.4402H827.538V77.9602ZM858.263 85.0002V43.4002H885.591V50.4402H865.943V60.2962H882.519V67.3362H865.943V77.9602H885.591V85.0002H858.263Z" fill="white"/>
<path d="M470.234 156.033C462.659 156.033 456.863 153.566 452.846 148.63C448.886 143.638 446.907 136.436 446.907 127.025C446.907 117.613 448.886 110.44 452.846 105.505C456.863 100.512 462.659 98.016 470.234 98.016C476.546 98.016 481.998 100.053 486.589 104.128L481.338 112.133C478.01 109.149 474.337 107.657 470.32 107.657C461.712 107.657 457.408 114.113 457.408 127.025C457.408 139.936 461.712 146.392 470.32 146.392C472.615 146.392 474.739 145.933 476.69 145.015C478.641 144.097 480.592 142.662 482.543 140.711L488.397 148.2C485.757 150.897 483.002 152.877 480.133 154.139C477.264 155.402 473.964 156.033 470.234 156.033ZM497.528 155V99.0489H507.857V121.774H525.934V99.0489H536.263V155H525.934V131.242H507.857V155H497.528ZM543.07 155L561.491 99.0489H572.165L590.586 155H579.74L575.78 142.605H557.359L553.4 155H543.07ZM560.286 133.136H572.853L566.57 112.563L560.286 133.136ZM600.233 155V99.0489H610.563V145.532H636.989V155H600.233ZM650.166 155V99.0489H660.495V145.532H686.921V155H650.166ZM699.582 155V99.0489H736.338V108.518H709.911V121.774H732.206V131.242H709.911V145.532H736.338V155H699.582ZM747.19 155V99.0489H758.725L776.629 135.805V99.0489H785.926V155H776.199L756.487 114.457V155H747.19ZM816.577 156.033C812.215 156.033 808.456 154.885 805.3 152.59C802.144 150.237 799.705 146.88 797.983 142.519C796.319 138.157 795.487 132.993 795.487 127.025C795.487 117.613 797.467 110.44 801.427 105.505C805.444 100.512 811.24 98.016 818.815 98.016C825.127 98.016 830.579 100.053 835.17 104.128L829.919 112.133C826.59 109.149 822.918 107.657 818.901 107.657C810.293 107.657 805.989 114.113 805.989 127.025C805.989 139.936 810.207 146.392 818.642 146.392C821.512 146.392 824.065 145.56 826.303 143.896V131.845H817.093V122.376H836.633V155H829.747L828.8 151.213C827.021 152.877 825.127 154.111 823.119 154.914C821.11 155.66 818.929 156.033 816.577 156.033ZM849.379 155V99.0489H886.135V108.518H859.709V121.774H882.003V131.242H859.709V145.532H886.135V155H849.379Z" fill="white"/>
<path d="M61.9351 155L67.1903 125.334H49.7295L51.9333 112.111H69.3941L73.6322 88.0385H56.1714L58.3752 74.8157H76.0055L80.5826 48.2006H94.8226L90.2454 74.8157H109.062L113.64 48.2006H127.879L123.302 74.8157H140.594L138.39 88.0385H120.929L116.691 112.111H134.152L131.948 125.334H114.487L109.232 155H94.9921L100.247 125.334H81.4303L76.1751 155H61.9351ZM83.6341 112.111H102.451L106.689 88.0385H87.8721L83.6341 112.111ZM153.83 155V136.692H183.666V78.8843L163.832 94.3108L154.338 81.2576L190.108 47.1835H204.008V136.692H233.844V155H153.83ZM291.835 157.034C278.386 157.034 268.045 152.344 260.812 142.964C253.692 133.471 250.132 119.683 250.132 101.6C250.132 83.5179 253.692 69.7866 260.812 60.4063C268.045 50.913 278.386 46.1664 291.835 46.1664C305.283 46.1664 315.568 50.913 322.688 60.4063C329.921 69.7866 333.537 83.5179 333.537 101.6C333.537 119.683 329.921 133.471 322.688 142.964C315.568 152.344 305.283 157.034 291.835 157.034ZM271.153 111.941L307.77 73.9681C304.266 67.8653 298.954 64.8139 291.835 64.8139C277.708 64.8139 270.644 77.076 270.644 101.6C270.644 105.217 270.814 108.664 271.153 111.941ZM291.835 138.387C305.961 138.387 313.025 126.125 313.025 101.6C313.025 97.8708 312.855 94.4239 312.516 91.2594L275.899 129.233C279.516 135.335 284.828 138.387 291.835 138.387ZM390.171 157.034C376.722 157.034 366.381 152.344 359.148 142.964C352.028 133.471 348.468 119.683 348.468 101.6C348.468 83.5179 352.028 69.7866 359.148 60.4063C366.381 50.913 376.722 46.1664 390.171 46.1664C403.62 46.1664 413.904 50.913 421.024 60.4063C428.257 69.7866 431.874 83.5179 431.874 101.6C431.874 119.683 428.257 133.471 421.024 142.964C413.904 152.344 403.62 157.034 390.171 157.034ZM369.489 111.941L406.106 73.9681C402.603 67.8653 397.291 64.8139 390.171 64.8139C376.044 64.8139 368.981 77.076 368.981 101.6C368.981 105.217 369.15 108.664 369.489 111.941ZM390.171 138.387C404.298 138.387 411.361 126.125 411.361 101.6C411.361 97.8708 411.192 94.4239 410.853 91.2594L374.236 129.233C377.852 135.335 383.164 138.387 390.171 138.387Z" fill="white"/>
<path d="M499.514 300.48L478.346 335.564L501.376 373H481.874L468.742 351.636L455.806 373H436.5L458.942 335.662L437.382 300.48H456.786L468.644 319.688L480.11 300.48H499.514Z" fill="white"/>
<path d="M241.469 487.531C241.042 487.104 240.536 486.765 239.978 486.534C239.42 486.303 238.823 486.184 238.219 486.184C237.615 486.184 237.018 486.303 236.46 486.534C235.902 486.765 235.396 487.104 234.969 487.531L204.88 517.626L201.796 514.537C198.346 511.097 193.673 509.165 188.802 509.165C183.93 509.165 179.257 511.097 175.807 514.537L162.422 527.928L158.782 524.281C157.92 523.419 156.751 522.935 155.531 522.935C154.312 522.935 153.143 523.419 152.281 524.281C151.419 525.143 150.935 526.312 150.935 527.531C150.935 528.75 151.419 529.919 152.281 530.781L155.928 534.422L142.537 547.807C140.83 549.513 139.476 551.539 138.553 553.769C137.629 555.998 137.154 558.388 137.154 560.802C137.154 563.215 137.629 565.605 138.553 567.834C139.476 570.064 140.83 572.09 142.537 573.796L145.626 576.88L115.531 606.969C115.105 607.396 114.766 607.902 114.535 608.46C114.304 609.018 114.185 609.615 114.185 610.219C114.185 610.822 114.304 611.42 114.535 611.978C114.766 612.535 115.105 613.042 115.531 613.469C116.393 614.331 117.562 614.815 118.781 614.815C119.385 614.815 119.983 614.696 120.54 614.465C121.098 614.234 121.605 613.896 122.032 613.469L152.121 583.374L155.204 586.463C158.655 589.902 163.327 591.833 168.199 591.833C173.07 591.833 177.743 589.902 181.193 586.463L194.578 573.073L198.219 576.719C198.646 577.146 199.152 577.484 199.71 577.715C200.268 577.946 200.865 578.065 201.469 578.065C202.073 578.065 202.67 577.946 203.228 577.715C203.786 577.484 204.292 577.146 204.719 576.719C205.146 576.292 205.484 575.785 205.715 575.228C205.946 574.67 206.065 574.072 206.065 573.469C206.065 572.865 205.946 572.268 205.715 571.71C205.484 571.152 205.146 570.646 204.719 570.219L201.073 566.578L214.464 553.193C216.17 551.487 217.524 549.461 218.448 547.231C219.372 545.002 219.847 542.612 219.847 540.199C219.847 537.785 219.372 535.395 218.448 533.166C217.524 530.936 216.17 528.91 214.464 527.204L211.374 524.12L241.469 494.031C241.896 493.605 242.235 493.098 242.466 492.54C242.697 491.983 242.816 491.385 242.816 490.781C242.816 490.178 242.697 489.58 242.466 489.022C242.235 488.465 241.896 487.958 241.469 487.531ZM207.963 546.676L194.578 560.084L168.917 534.422L182.307 521.037C184.03 519.315 186.366 518.348 188.802 518.348C191.237 518.348 193.573 519.315 195.296 521.037L207.963 533.67C208.817 534.523 209.494 535.536 209.956 536.651C210.417 537.765 210.655 538.96 210.655 540.167C210.655 541.374 210.417 542.569 209.956 543.683C209.494 544.798 208.817 545.811 207.963 546.664V546.676ZM155.767 496.828C155.382 495.672 155.471 494.41 156.016 493.321C156.561 492.231 157.517 491.402 158.672 491.017C159.828 490.631 161.09 490.721 162.18 491.266C163.27 491.811 164.098 492.766 164.484 493.922L169.077 507.704C169.268 508.276 169.344 508.88 169.302 509.482C169.259 510.084 169.098 510.671 168.828 511.211C168.558 511.75 168.185 512.232 167.729 512.627C167.273 513.022 166.744 513.324 166.172 513.515C165.016 513.9 163.754 513.81 162.664 513.265C162.125 512.996 161.644 512.622 161.248 512.166C160.853 511.711 160.551 511.181 160.361 510.609L155.767 496.828ZM119.017 530.672C119.208 530.1 119.509 529.571 119.905 529.115C120.3 528.659 120.781 528.286 121.321 528.016C121.86 527.746 122.448 527.585 123.05 527.542C123.651 527.5 124.256 527.576 124.828 527.767L138.609 532.361C139.182 532.551 139.711 532.853 140.167 533.248C140.622 533.644 140.996 534.125 141.266 534.664C141.535 535.204 141.696 535.791 141.739 536.393C141.782 536.995 141.706 537.599 141.515 538.172C141.324 538.744 141.022 539.273 140.627 539.729C140.232 540.185 139.751 540.558 139.211 540.828C138.671 541.098 138.084 541.259 137.482 541.301C136.88 541.344 136.276 541.268 135.704 541.077L121.922 536.483C121.35 536.293 120.821 535.991 120.365 535.596C119.909 535.201 119.536 534.719 119.266 534.18C118.996 533.64 118.835 533.053 118.793 532.451C118.75 531.849 118.826 531.245 119.017 530.672ZM237.984 570.328C237.793 570.9 237.491 571.429 237.096 571.885C236.701 572.341 236.219 572.714 235.68 572.984C235.14 573.254 234.553 573.415 233.951 573.458C233.349 573.5 232.745 573.424 232.172 573.233L218.391 568.64C217.235 568.254 216.28 567.426 215.735 566.336C215.19 565.246 215.1 563.984 215.486 562.829C215.871 561.673 216.7 560.717 217.789 560.172C218.879 559.627 220.141 559.538 221.297 559.923L235.078 564.517C235.65 564.708 236.18 565.009 236.635 565.404C237.091 565.8 237.465 566.281 237.734 566.821C238.004 567.36 238.165 567.948 238.208 568.549C238.251 569.151 238.174 569.756 237.984 570.328ZM201.234 604.172C201.619 605.328 201.529 606.59 200.984 607.68C200.439 608.769 199.484 609.598 198.328 609.983C197.172 610.369 195.911 610.279 194.821 609.734C193.731 609.189 192.902 608.234 192.517 607.078L187.923 593.297C187.538 592.141 187.628 590.879 188.172 589.789C188.717 588.7 189.673 587.871 190.829 587.486C191.985 587.1 193.246 587.19 194.336 587.735C195.426 588.28 196.255 589.235 196.64 590.391L201.234 604.172Z" fill="white"/>
<path d="M305.594 585.5V514.227H336.358C341.648 514.227 346.276 515.271 350.244 517.359C354.211 519.447 357.297 522.382 359.501 526.164C361.705 529.946 362.807 534.366 362.807 539.423C362.807 544.527 361.67 548.947 359.396 552.683C357.146 556.418 353.979 559.295 349.896 561.313C345.835 563.332 341.091 564.341 335.662 564.341H317.287V549.307H331.764C334.038 549.307 335.975 548.912 337.576 548.124C339.2 547.312 340.441 546.163 341.3 544.678C342.181 543.193 342.622 541.442 342.622 539.423C342.622 537.382 342.181 535.642 341.3 534.203C340.441 532.741 339.2 531.628 337.576 530.862C335.975 530.073 334.038 529.679 331.764 529.679H324.943V585.5H305.594ZM370.185 585.5V532.045H388.838V542.207H389.395C390.369 538.449 391.912 535.7 394.023 533.96C396.158 532.219 398.652 531.349 401.506 531.349C402.341 531.349 403.165 531.419 403.977 531.558C404.812 531.674 405.612 531.848 406.378 532.08V548.472C405.427 548.147 404.255 547.903 402.863 547.741C401.471 547.578 400.276 547.497 399.278 547.497C397.399 547.497 395.705 547.926 394.197 548.785C392.713 549.62 391.541 550.803 390.683 552.335C389.824 553.843 389.395 555.617 389.395 557.659V585.5H370.185ZM435.367 586.474C429.567 586.474 424.602 585.326 420.472 583.029C416.343 580.709 413.176 577.484 410.972 573.354C408.768 569.201 407.665 564.387 407.665 558.912C407.665 553.437 408.768 548.634 410.972 544.504C413.176 540.351 416.343 537.126 420.472 534.83C424.602 532.509 429.567 531.349 435.367 531.349C441.167 531.349 446.132 532.509 450.262 534.83C454.392 537.126 457.559 540.351 459.763 544.504C461.967 548.634 463.069 553.437 463.069 558.912C463.069 564.387 461.967 569.201 459.763 573.354C457.559 577.484 454.392 580.709 450.262 583.029C446.132 585.326 441.167 586.474 435.367 586.474ZM435.506 572.276C437.13 572.276 438.534 571.73 439.717 570.64C440.901 569.549 441.817 567.995 442.467 565.977C443.116 563.958 443.441 561.557 443.441 558.773C443.441 555.965 443.116 553.564 442.467 551.569C441.817 549.55 440.901 547.996 439.717 546.906C438.534 545.815 437.13 545.27 435.506 545.27C433.79 545.27 432.316 545.815 431.087 546.906C429.857 547.996 428.917 549.55 428.268 551.569C427.618 553.564 427.293 555.965 427.293 558.773C427.293 561.557 427.618 563.958 428.268 565.977C428.917 567.995 429.857 569.549 431.087 570.64C432.316 571.73 433.79 572.276 435.506 572.276ZM485.611 532.045L493.407 548.611L501.62 532.045H520.691L506.353 558.773L521.387 585.5H502.455L493.407 568.517L484.637 585.5H465.427L480.6 558.773L466.401 532.045H485.611ZM539.214 605.545C537.01 605.545 534.91 605.371 532.915 605.023C530.92 604.699 529.168 604.246 527.66 603.666L531.836 590.024C533.414 590.581 534.852 590.941 536.151 591.103C537.474 591.265 538.599 591.173 539.527 590.825C540.478 590.477 541.163 589.815 541.58 588.841L541.998 587.866L523.205 532.045H543.251L551.881 569.074H552.438L561.208 532.045H581.393L561.904 589.955C560.93 592.901 559.514 595.546 557.658 597.889C555.826 600.256 553.413 602.123 550.42 603.492C547.427 604.861 543.692 605.545 539.214 605.545ZM672.641 540.955H653.013C652.874 539.33 652.503 537.857 651.9 536.535C651.32 535.212 650.508 534.076 649.464 533.124C648.443 532.15 647.202 531.407 645.74 530.897C644.278 530.363 642.62 530.097 640.763 530.097C637.515 530.097 634.766 530.885 632.516 532.463C630.288 534.041 628.595 536.303 627.435 539.249C626.298 542.196 625.729 545.734 625.729 549.864C625.729 554.225 626.309 557.879 627.469 560.826C628.653 563.749 630.358 565.953 632.585 567.438C634.813 568.9 637.492 569.631 640.624 569.631C642.411 569.631 644.012 569.41 645.427 568.969C646.842 568.505 648.072 567.844 649.116 566.986C650.16 566.127 651.007 565.095 651.656 563.888C652.329 562.659 652.781 561.278 653.013 559.747L672.641 559.886C672.409 562.902 671.563 565.977 670.101 569.109C668.639 572.218 666.563 575.094 663.871 577.739C661.203 580.361 657.897 582.472 653.953 584.073C650.009 585.674 645.427 586.474 640.207 586.474C633.664 586.474 627.794 585.071 622.597 582.263C617.424 579.456 613.329 575.326 610.312 569.874C607.32 564.422 605.823 557.752 605.823 549.864C605.823 541.929 607.354 535.247 610.417 529.818C613.479 524.366 617.609 520.248 622.806 517.464C628.003 514.656 633.803 513.253 640.207 513.253C644.708 513.253 648.849 513.868 652.631 515.097C656.412 516.327 659.73 518.125 662.584 520.491C665.438 522.835 667.734 525.723 669.474 529.157C671.214 532.591 672.27 536.523 672.641 540.955ZM700.909 514.227V585.5H681.698V514.227H700.909ZM745.358 562.114V532.045H764.569V585.5H746.333V575.338H745.776C744.616 578.749 742.586 581.417 739.686 583.342C736.786 585.245 733.34 586.196 729.35 586.196C725.614 586.196 722.343 585.338 719.536 583.621C716.752 581.904 714.583 579.537 713.028 576.521C711.497 573.505 710.72 570.048 710.696 566.151V532.045H729.907V562.114C729.93 564.759 730.603 566.835 731.925 568.343C733.271 569.851 735.15 570.605 737.563 570.605C739.164 570.605 740.544 570.269 741.704 569.596C742.887 568.9 743.792 567.925 744.419 566.673C745.068 565.397 745.382 563.877 745.358 562.114ZM774.061 585.5V514.227H793.271V541.372H793.549C794.245 539.562 795.266 537.904 796.612 536.396C797.957 534.864 799.628 533.646 801.623 532.741C803.618 531.813 805.938 531.349 808.583 531.349C812.11 531.349 815.462 532.289 818.641 534.168C821.843 536.048 824.441 539.006 826.436 543.043C828.455 547.08 829.464 552.323 829.464 558.773C829.464 564.944 828.501 570.06 826.575 574.12C824.673 578.18 822.121 581.208 818.919 583.203C815.741 585.198 812.249 586.196 808.444 586.196C805.938 586.196 803.7 585.79 801.727 584.978C799.779 584.143 798.108 583.018 796.716 581.602C795.347 580.164 794.292 578.54 793.549 576.73H793.132V585.5H774.061ZM792.853 558.773C792.853 561.371 793.19 563.622 793.862 565.524C794.558 567.403 795.533 568.865 796.786 569.909C798.062 570.93 799.581 571.44 801.345 571.44C803.108 571.44 804.604 570.942 805.834 569.944C807.087 568.923 808.038 567.473 808.688 565.594C809.361 563.691 809.697 561.418 809.697 558.773C809.697 556.128 809.361 553.866 808.688 551.987C808.038 550.084 807.087 548.634 805.834 547.636C804.604 546.616 803.108 546.105 801.345 546.105C799.581 546.105 798.062 546.616 796.786 547.636C795.533 548.634 794.558 550.084 793.862 551.987C793.19 553.866 792.853 556.128 792.853 558.773Z" fill="white"/>
</svg>
