<svg width="56" height="56" viewBox="0 0 56 56" xmlns="http://www.w3.org/2000/svg"><path d="M17 11H29.0769C36.7305 11 43 16.984 43 24.4444C43 31.9048 36.7305 37.8889 29.0769 37.8889H26.3846V45H17V11ZM19 13V43H24.3846V35.8889H29.0769C35.6978 35.8889 41 30.7298 41 24.4444C41 18.1591 35.6978 13 29.0769 13H19ZM24.3846 18.1111H29.0769C32.6521 18.1111 35.6154 20.9114 35.6154 24.4444C35.6154 27.9775 32.6521 30.7778 29.0769 30.7778H24.3846V18.1111ZM26.3846 20.1111V28.7778H29.0769C31.6194 28.7778 33.6154 26.8024 33.6154 24.4444C33.6154 22.0864 31.6194 20.1111 29.0769 20.1111H26.3846Z" fill="#a1a1aa"/></svg>