<?xml version="1.0" encoding="UTF-8" standalone="no"?>
<!-- Created with Inkscape (http://www.inkscape.org/) -->

<svg
   width="390.59796mm"
   height="390.59796mm"
   viewBox="0 0 390.59796 390.59796"
   version="1.1"
   id="svg5"
   xml:space="preserve"
   inkscape:version="1.2.2 (732a01da63, 2022-12-09)"
   sodipodi:docname="blob.svg"
   xmlns:inkscape="http://www.inkscape.org/namespaces/inkscape"
   xmlns:sodipodi="http://sodipodi.sourceforge.net/DTD/sodipodi-0.dtd"
   xmlns="http://www.w3.org/2000/svg"
   xmlns:svg="http://www.w3.org/2000/svg"><sodipodi:namedview
     id="namedview7"
     pagecolor="#505050"
     bordercolor="#ffffff"
     borderopacity="1"
     inkscape:showpageshadow="0"
     inkscape:pageopacity="0"
     inkscape:pagecheckerboard="1"
     inkscape:deskcolor="#505050"
     inkscape:document-units="mm"
     showgrid="false"
     inkscape:zoom="0.1307101"
     inkscape:cx="3614.8699"
     inkscape:cy="3002.8285"
     inkscape:window-width="1920"
     inkscape:window-height="991"
     inkscape:window-x="-9"
     inkscape:window-y="-9"
     inkscape:window-maximized="1"
     inkscape:current-layer="g3338" /><defs
     id="defs2" /><g
     inkscape:label="Layer 1"
     inkscape:groupmode="layer"
     id="layer1"
     transform="translate(-622.54951,-454.13835)"><g
       id="g965"
       transform="translate(33.399294,-502.0015)"
       inkscape:export-filename="pORTFOLIO\circle-body.svg"
       inkscape:export-xdpi="250"
       inkscape:export-ydpi="250"><circle
         style="fill:#7ed957;fill-opacity:1;stroke:#000000;stroke-width:6;stroke-linecap:round;stroke-linejoin:round;stroke-dasharray:none"
         id="circle721"
         cx="784.44922"
         cy="1151.4388"
         r="192.29897"
         inkscape:export-filename="pORTFOLIO\circle-body.png"
         inkscape:export-xdpi="250"
         inkscape:export-ydpi="250" /><g
         id="g753"
         transform="translate(14.691025,1042.2984)"><path
           sodipodi:type="star"
           style="fill:none;fill-opacity:1;stroke:#000000;stroke-width:6;stroke-linecap:round;stroke-linejoin:round;stroke-dasharray:none"
           id="path743"
           inkscape:flatsided="true"
           sodipodi:sides="3"
           sodipodi:cx="101.26627"
           sodipodi:cy="133.11327"
           sodipodi:r1="72.045944"
           sodipodi:r2="36.022968"
           sodipodi:arg1="0.52359878"
           sodipodi:arg2="1.5707963"
           inkscape:rounded="0.24"
           inkscape:randomized="0"
           d="m 163.65989,169.13624 c -14.97447,25.93654 -109.812766,25.93654 -124.787235,0 C 23.898187,143.1997 71.317337,61.067322 101.26627,61.067322 c 29.94894,0 77.36809,82.132378 62.39362,108.068918 z"
           inkscape:transform-center-x="1.2757954e-06"
           inkscape:transform-center-y="-18.011487"
           transform="translate(668.49193,-15.687547)" /><g
           id="g751"
           transform="matrix(1.3264478,0,0,1.3264478,337.60176,-59.857788)"
           style="fill:#000000"><path
             style="fill:#000000;stroke-width:0.359086"
             d="m 342.2947,136.40054 c -3.695,6.38813 -9.83536,10.0544 -16.84831,10.0544 -7.01295,0 -13.15332,-3.66268 -16.8519,-10.0544 a 2.8732464,2.8732464 0 1 1 4.97693,-2.87269 c 2.67878,4.6358 6.89445,7.18172 11.87497,7.18172 4.98052,0 9.19619,-2.54951 11.87856,-7.18172 a 2.8726868,2.8726868 0 1 1 4.96975,2.87269 z"
             id="path745" /><path
             style="fill:#000000;stroke-width:0.359086"
             d="m 345.5552,119.16441 a 2.8726868,2.8726868 0 0 1 -2.87269,2.87269 h -8.61806 a 2.8726868,2.8726868 0 0 1 0,-5.74537 h 8.61806 a 2.8726868,2.8726868 0 0 1 2.87269,2.87268 z"
             id="path747" /><path
             style="fill:#000000;stroke-width:0.359086"
             d="m 308.21027,119.16441 a 4.3090302,4.3090302 0 1 1 4.30903,4.30903 4.3090302,4.3090302 0 0 1 -4.30903,-4.30903 z"
             id="path749" /></g></g></g></g></svg>
