<?xml version="1.0" encoding="UTF-8" standalone="no"?>
<!-- Created with Inkscape (http://www.inkscape.org/) -->

<svg
   width="384.59802mm"
   height="384.59796mm"
   viewBox="0 0 384.59802 384.59796"
   version="1.1"
   id="svg5"
   xml:space="preserve"
   inkscape:version="1.2.2 (732a01da63, 2022-12-09)"
   sodipodi:docname="blob.svg"
   xmlns:inkscape="http://www.inkscape.org/namespaces/inkscape"
   xmlns:sodipodi="http://sodipodi.sourceforge.net/DTD/sodipodi-0.dtd"
   xmlns="http://www.w3.org/2000/svg"
   xmlns:svg="http://www.w3.org/2000/svg"><sodipodi:namedview
     id="namedview7"
     pagecolor="#505050"
     bordercolor="#ffffff"
     borderopacity="1"
     inkscape:showpageshadow="0"
     inkscape:pageopacity="0"
     inkscape:pagecheckerboard="1"
     inkscape:deskcolor="#505050"
     inkscape:document-units="mm"
     showgrid="false"
     inkscape:zoom="0.1307101"
     inkscape:cx="3614.8699"
     inkscape:cy="3002.8285"
     inkscape:window-width="1920"
     inkscape:window-height="991"
     inkscape:window-x="-9"
     inkscape:window-y="-9"
     inkscape:window-maximized="1"
     inkscape:current-layer="g3338" /><defs
     id="defs2" /><g
     inkscape:label="Layer 1"
     inkscape:groupmode="layer"
     id="layer1"
     transform="translate(-1072.3598,-449.21526)"><g
       id="g851"
       inkscape:export-filename="pORTFOLIO\circle-text.svg"
       inkscape:export-xdpi="250"
       inkscape:export-ydpi="250"><circle
         style="fill:none;fill-opacity:1;stroke:none;stroke-width:6;stroke-linecap:round;stroke-linejoin:round;stroke-dasharray:none"
         id="circle727"
         cx="1264.6588"
         cy="641.51422"
         r="192.29897"
         inkscape:export-filename="pORTFOLIO\circle-body.png"
         inkscape:export-xdpi="250"
         inkscape:export-ydpi="250" /><g
         aria-label="Namaste paji!"
         transform="translate(487.61131,528.10253)"
         id="text733"
         style="font-size:42.3333px;line-height:1.25;font-family:Valentine;-inkscape-font-specification:Valentine;text-align:center;letter-spacing:3.175px;text-anchor:middle;stroke-width:0.211667"><path
           d="m 901.98239,167.92337 20.52151,-2.82626 2.84152,-7.25255 -28.85252,-11.30429 -2.60987,6.66131 16.87005,6.60961 -20.57637,2.85023 -2.82608,7.21313 28.93135,11.33518 2.60987,-6.66131 z"
           style="font-family:'The Bold Font';-inkscape-font-specification:'The Bold Font'"
           id="path774" /><path
           d="m 873.14194,190.76992 -4.44166,6.08711 31.01464,10.21086 3.99251,-5.47155 -18.86247,-26.86491 -4.46661,6.1213 2.29495,3.24675 -5.76417,7.89955 z m 13.86341,-0.46992 4.56496,6.52769 -7.53438,-2.45822 z"
           style="font-family:'The Bold Font';-inkscape-font-specification:'The Bold Font'"
           id="path776" /><path
           d="m 868.14609,238.09236 -6.96303,-19.36233 17.48026,10.95918 5.75472,-4.59795 -17.86795,-25.55067 -5.62242,4.49225 7.58314,10.84729 -11.81649,-7.46489 -5.58935,4.46582 4.55405,12.61727 -8.52281,-9.44627 -5.58935,4.46583 20.84452,23.17243 z"
           style="font-family:'The Bold Font';-inkscape-font-specification:'The Bold Font'"
           id="path778" /><path
           d="m 820.27028,228.89129 -6.90121,3.02563 21.66515,24.42931 6.20334,-2.71966 -2.78374,-32.70729 -6.93998,3.04262 0.34968,3.96055 -8.95607,3.92651 z m 12.21718,6.56931 0.6606,7.93809 -5.27434,-5.91534 z"
           style="font-family:'The Bold Font';-inkscape-font-specification:'The Bold Font'"
           id="path780" /><path
           d="m 800.41034,233.62205 c -1.49565,0.29256 -2.93442,0.87594 -4.2585,1.82511 -3.33097,2.37699 -4.85839,6.25602 -4.1026,10.11979 0.77204,3.94687 3.64036,6.92292 7.62147,7.8696 1.0865,0.26197 2.09894,0.36587 3.11139,0.46978 1.10366,0.1292 2.12423,0.27465 3.003,0.57725 0.93656,0.37756 1.48835,1.43429 1.20201,2.39615 -0.42997,1.55071 -2.1812,1.41878 -2.38893,1.45941 -0.6557,-0.0443 -1.76749,-0.21503 -2.01942,-1.50295 l -7.02126,1.37342 c 0.81267,4.15459 4.32044,7.09183 8.71162,7.26813 4.58175,0.26844 8.36251,-2.45535 9.62531,-6.58457 1.3143,-4.52751 -1.14753,-9.39477 -5.53232,-11.08206 -1.68257,-0.663 -3.30916,-0.81931 -4.76957,-1.00814 -0.84626,-0.13641 -1.54351,-0.17257 -2.22358,-0.34149 -1.73315,-0.48056 -2.14314,-1.69443 -2.25691,-2.27607 -0.10565,-0.5401 -0.20765,-1.94362 1.24107,-2.91717 1.02422,-0.71797 2.23718,-0.9121 3.36431,-0.44241 0.60511,0.22672 1.73132,0.91227 2.05639,2.57411 l 7.02127,-1.37342 c -0.71516,-3.65604 -3.08584,-6.51376 -6.45911,-7.88129 -1.9228,-0.78854 -3.97298,-0.90514 -5.92564,-0.52318 z"
           style="font-family:'The Bold Font';-inkscape-font-specification:'The Bold Font'"
           id="path782" /><path
           d="m 767.44413,267.56946 19.04994,0.0427 0.0162,-7.19664 -5.92665,-0.0133 0.0539,-24.00292 -7.15431,-0.0161 -0.0539,24.00292 -5.96898,-0.0134 z"
           style="font-family:'The Bold Font';-inkscape-font-specification:'The Bold Font'"
           id="path784" /><path
           d="m 737.04629,255.07015 -1.48352,6.99883 19.51438,4.09313 6.43444,-30.35586 -19.5056,-4.13454 -1.48352,6.99882 12.50678,2.65103 -1.01828,4.80393 -10.14623,-2.15067 -1.48352,6.99883 10.14623,2.15066 -0.97438,4.59687 z"
           style="font-family:'The Bold Font';-inkscape-font-specification:'The Bold Font'"
           id="path786" /><path
           d="m 696.79174,229.85299 c -3.49066,6.14779 -1.4263,14.08662 4.6956,17.70863 l 6.22142,3.53247 15.34222,-27.02084 -6.22142,-3.53247 -2.44556,4.30714 c -6.24731,-3.40113 -14.08069,-1.17953 -17.59226,5.00507 z m 8.24897,11.45039 c -2.69827,-1.6781 -3.59521,-5.15693 -2.02755,-7.91792 1.56767,-2.76098 5.01468,-3.77335 7.83837,-2.31612 z"
           style="font-family:'The Bold Font';-inkscape-font-specification:'The Bold Font'"
           id="path788" /><path
           d="m 690.78355,201.07275 -5.6222,-5.01717 -13.20303,29.86386 5.05367,4.50982 28.58512,-16.13712 -5.65379,-5.04535 -3.45614,1.96551 -7.29623,-6.51104 z m -0.89182,13.84268 -6.94388,3.90284 3.18522,-7.25702 z"
           style="font-family:'The Bold Font';-inkscape-font-specification:'The Bold Font'"
           id="path790" /><path
           d="m 647.9076,198.12794 16.32067,-11.23168 c 2.16214,-1.48796 5.02514,-0.83739 6.4411,1.22013 0.71998,1.04619 0.96036,2.21689 0.72113,3.51209 -0.26322,1.26032 -0.92993,2.23303 -1.97613,2.95301 l 3.98614,5.94157 c 2.67436,-1.78907 4.40863,-4.42147 5.00895,-7.50684 0.57632,-3.12025 -0.009,-6.21161 -1.79851,-8.88597 l -0.072,-0.10462 c -3.6239,-5.26586 -10.92634,-6.76684 -16.33169,-3.04694 l -16.35554,11.25567 z"
           style="font-family:'The Bold Font';-inkscape-font-specification:'The Bold Font'"
           id="path792" /><path
           d="m 635.8509,174.88385 3.00996,6.49035 28.22724,-13.09062 -3.00995,-6.49034 z"
           style="font-family:'The Bold Font';-inkscape-font-specification:'The Bold Font'"
           id="path794" /><path
           d="m 653.4983,154.5221 c 0.64115,1.92819 2.72875,2.97392 4.65695,2.33276 1.92819,-0.64115 2.97391,-2.72875 2.33276,-4.65694 -0.65451,-1.96837 -2.74211,-3.01409 -4.6703,-2.37294 -1.9282,0.64116 -2.97392,2.72875 -2.31941,4.69712 z m -4.30887,-2.35928 -19.88452,6.6119 2.2574,6.78885 19.88452,-6.6119 z"
           style="font-family:'The Bold Font';-inkscape-font-specification:'The Bold Font'"
           id="path796" /></g><g
         aria-label="ceo of ashuzon"
         transform="translate(487.61131,528.10253)"
         id="text737"
         style="font-size:42.3333px;line-height:1.25;font-family:Valentine;-inkscape-font-specification:Valentine;text-align:center;letter-spacing:3.175px;text-anchor:middle;stroke-width:0.255547"><path
           d="m 654.88933,99.784087 c 0.35969,-4.048048 -0.77146,-8.058564 -3.53773,-11.364367 l -5.50592,4.568282 c 2.99679,3.581286 2.48253,8.890598 -1.05284,11.848978 -1.78315,1.41406 -3.88586,2.11972 -6.12072,1.92115 -2.23486,-0.19858 -4.22237,-1.26768 -5.72826,-2.97399 -2.95837,-3.53538 -2.52844,-8.852186 1.05284,-11.848978 l -4.57202,-5.463757 c -6.61161,5.532539 -7.48086,15.315325 -1.94832,21.926925 2.65101,3.16806 6.34584,5.11137 10.56256,5.48605 4.17455,0.37093 8.11197,-0.89422 11.36437,-3.53773 3.3058,-2.76627 5.1301,-6.55668 5.48604,-10.562563 z"
           style="font-family:'The Bold Font';-inkscape-font-specification:'The Bold Font'"
           id="path799" /><path
           d="m 640.6001,58.286154 -6.80102,-2.220482 -6.1482,18.96746 29.49791,9.630849 6.18844,-18.954321 -6.80101,-2.220482 -3.96797,12.153301 -4.66815,-1.524118 3.21904,-9.859466 -6.80102,-2.220482 -3.21904,9.859466 -4.46694,-1.458423 z"
           style="font-family:'The Bold Font';-inkscape-font-specification:'The Bold Font'"
           id="path801" /><path
           d="m 647.22494,30.490674 c -4.62189,7.244939 -2.50277,16.831933 4.74217,21.453821 7.24494,4.621888 16.83193,2.502772 21.45382,-4.742167 4.62189,-7.24494 2.52554,-16.867623 -4.7194,-21.489511 -7.24494,-4.621888 -16.8547,-2.467083 -21.47659,4.777857 z m 20.16449,12.863875 c -2.48171,3.89014 -7.6844,5.040148 -11.57454,2.558445 -3.89014,-2.481704 -5.04015,-7.684402 -2.55845,-11.574541 2.4817,-3.89014 7.6844,-5.040148 11.57454,-2.558445 3.89014,2.481703 5.04015,7.684401 2.55845,11.574541 z"
           style="font-family:'The Bold Font';-inkscape-font-specification:'The Bold Font'"
           id="path803" /><path
           d="m 687.71747,-12.18923 c -6.99263,4.9954061 -8.60615,14.6803243 -3.61075,21.672957 4.99541,6.992633 14.68033,8.606155 21.67296,3.610749 6.99263,-4.9954064 8.6406,-14.7049325 3.6452,-21.6975651 -4.99541,-6.9926329 -14.71477,-8.5815479 -21.70741,-3.5861409 z m 13.90347,19.4622532 c -3.75466,2.6822625 -9.0105,1.8066313 -11.69276,-1.9480335 -2.68227,-3.7546648 -1.80663,-9.0105046 1.94803,-11.6927671 3.75466,-2.6822625 9.0105,-1.8066313 11.69277,1.9480335 2.68226,3.75466482 1.80663,9.0105046 -1.94804,11.6927671 z"
           style="font-family:'The Bold Font';-inkscape-font-specification:'The Bold Font'"
           id="path805" /><path
           d="m 732.29454,-26.964342 -2.61671,-6.658623 -17.45426,6.859177 11.36487,28.9196988 6.65862,-2.61670629 -4.41279,-11.22903851 8.54983,-3.359913 -2.61671,-6.658622 -8.54983,3.359912 -1.71866,-4.373415 z"
           style="font-family:'The Bold Font';-inkscape-font-specification:'The Bold Font'"
           id="path807" /><path
           d="m 778.76843,-9.939349 7.52797,-0.332836 -11.39568,-30.599159 -6.76672,0.299178 -9.20051,31.5097826 7.57026,-0.3347054 1.10234,-3.8200822 9.76945,-0.431939 z m -9.02541,-10.53362 2.24698,-7.642035 2.78577,7.419521 z"
           style="font-family:'The Bold Font';-inkscape-font-specification:'The Bold Font'"
           id="path809" /><path
           d="m 799.00338,-7.2399703 c 1.50021,0.2682304 3.05257,0.2447537 4.63032,-0.1612259 3.96521,-1.0112237 6.79227,-4.0751428 7.4852,-7.9506808 0.70783,-3.958883 -0.88984,-7.770919 -4.25898,-10.093491 -0.91818,-0.637218 -1.82449,-1.100294 -2.7308,-1.563371 -0.98221,-0.519651 -1.88107,-1.0244 -2.59088,-1.624363 -0.73659,-0.690758 -0.8688,-1.875521 -0.25393,-2.668684 0.96176,-1.290199 2.5467,-0.533768 2.75506,-0.496514 0.59528,0.278453 1.57003,0.839776 1.33906,2.131622 l 7.04264,1.259193 c 0.74509,-4.167245 -1.46277,-8.174389 -5.49287,-9.927063 -4.17443,-1.907495 -8.68441,-0.735647 -11.35527,2.657233 -2.86293,3.74558 -2.3283,9.173744 1.14931,12.332798 1.32884,1.226697 2.78876,1.960775 4.082,2.66505 0.73962,0.433273 1.37657,0.719177 1.9495,1.122646 1.44199,1.074909 1.38516,2.354886 1.28084,2.9383 -0.0969,0.541742 -0.50943,1.88713 -2.21219,2.270757 -1.21457,0.298897 -2.41562,0.04115 -3.29654,-0.80443 -0.48214,-0.430241 -1.28414,-1.476732 -0.9861,-3.14363 l -7.04265,-1.259193 c -0.65567,3.667176 0.52085,7.188891 3.17108,9.6839568 1.5074,1.4306409 3.37659,2.2809001 5.3352,2.6310899 z"
           style="font-family:'The Bold Font';-inkscape-font-specification:'The Bold Font'"
           id="path811" /><path
           d="m 842.52666,-26.445881 -4.83494,11.192322 -8.23879,-3.559048 4.83493,-11.192322 -6.56771,-2.837165 -12.32237,28.5248754 6.56772,2.8371654 4.65027,-10.7648368 8.23879,3.5590474 -4.65027,10.7648372 6.56772,2.8371655 12.32236,-28.5248751 z"
           style="font-family:'The Bold Font';-inkscape-font-specification:'The Bold Font'"
           id="path813" /><path
           d="m 852.6511,16.010384 c 5.16273,3.842804 12.62059,2.929807 16.48934,-2.266384 l 11.7776,-15.1878302 -5.65362,-4.3841753 -11.80354,15.2212836 c -1.55652,2.0072019 -4.45186,2.4940569 -6.49252,0.9116029 -1.0036,-0.7782563 -1.61397,-1.7872785 -1.80516,-3.0605203 -0.16525,-1.3066952 0.14125,-2.4618434 0.89356,-3.4319911 l 11.88138,-15.3216436 -5.65362,-4.384176 -11.90732,15.35509758 c -1.93813,2.56839802 -2.69857,5.62148322 -2.30046,8.76943072 0.41654,3.0550987 1.96499,5.7558407 4.474,7.7014797 z"
           style="font-family:'The Bold Font';-inkscape-font-specification:'The Bold Font'"
           id="path815" /><path
           d="m 887.75915,43.303717 -7.83493,-10.156062 27.04383,-4.448834 -14.1883,-18.460956 -5.69812,4.395833 6.90404,8.949402 -27.04382,4.448834 15.1527,19.641759 z"
           style="font-family:'The Bold Font';-inkscape-font-specification:'The Bold Font'"
           id="path817" /><path
           d="m 919.98449,54.81855 c -3.26082,-7.950977 -12.31863,-11.740066 -20.26961,-8.479243 -7.95097,3.260823 -11.74006,12.318632 -8.47924,20.269609 3.26082,7.950976 12.3347,11.779233 20.28567,8.51841 7.95098,-3.260824 11.72401,-12.3578 8.46318,-20.308776 z m -22.12956,9.07569 c -1.75089,-4.269244 0.30539,-9.184762 4.57463,-10.935647 4.26924,-1.750885 9.18476,0.305389 10.93565,4.574632 1.75088,4.269244 -0.30539,9.184762 -4.57464,10.935647 -4.26924,1.750886 -9.18476,-0.305388 -10.93564,-4.574632 z"
           style="font-family:'The Bold Font';-inkscape-font-specification:'The Bold Font'"
           id="path819" /><path
           d="m 930.96426,99.982435 -18.0278,2.195335 16.72071,-12.228566 -0.94159,-7.732207 -30.76073,3.745892 0.86483,7.101865 17.98578,-2.190221 -16.75762,12.275707 0.93647,7.69019 30.84478,-3.75613 z"
           style="font-family:'The Bold Font';-inkscape-font-specification:'The Bold Font'"
           id="path821" /></g></g></g></svg>
