<svg width="128" height="128" viewBox="0 0 128 128" fill="none" xmlns="http://www.w3.org/2000/svg">
<rect width="128" height="128" fill="#6CCF61"/>
<path fill-rule="evenodd" clip-rule="evenodd" d="M35.5625 64C35.5625 48.2944 48.2944 35.5625 64 35.5625C79.7056 35.5625 92.4375 48.2944 92.4375 64C92.4375 79.7056 79.7056 92.4375 64 92.4375C48.2944 92.4375 35.5625 79.7056 35.5625 64ZM74.53 58.709C75.2322 57.7259 75.0045 56.3597 74.0215 55.6575C73.0384 54.9553 71.6722 55.183 70.97 56.166L61.5334 69.3773L56.7968 64.6407C55.9425 63.7864 54.5575 63.7864 53.7032 64.6407C52.8489 65.495 52.8489 66.88 53.7032 67.7343L60.2657 74.2968C60.7204 74.7515 61.3521 74.9831 61.9929 74.93C62.6338 74.877 63.2188 74.5447 63.5925 74.0215L74.53 58.709Z" fill="black"/>
</svg>
