<?xml version="1.0" encoding="UTF-8" standalone="no"?>
<!-- Created with Inkscape (http://www.inkscape.org/) -->

<svg
   width="41.275009mm"
   height="41.265991mm"
   viewBox="0 0 41.275009 41.265991"
   version="1.1"
   id="svg1254"
   xml:space="preserve"
   xmlns:inkscape="http://www.inkscape.org/namespaces/inkscape"
   xmlns:sodipodi="http://sodipodi.sourceforge.net/DTD/sodipodi-0.dtd"
   xmlns="http://www.w3.org/2000/svg"
   xmlns:svg="http://www.w3.org/2000/svg"><sodipodi:namedview
     id="namedview1256"
     pagecolor="#505050"
     bordercolor="#ffffff"
     borderopacity="1"
     inkscape:showpageshadow="0"
     inkscape:pageopacity="0"
     inkscape:pagecheckerboard="1"
     inkscape:deskcolor="#505050"
     inkscape:document-units="mm"
     showgrid="false" /><defs
     id="defs1251" /><g
     inkscape:label="Layer 1"
     inkscape:groupmode="layer"
     id="layer1"
     transform="translate(-134.62137,-106.54608)"><g
       id="g2194"><circle
         style="fill:#ffffff;fill-opacity:1;stroke-width:11.5131;stroke-linejoin:round"
         id="path2052"
         cx="155.25888"
         cy="127.17908"
         r="20.632999" /><path
         d="m 175.88674,127.81443 c -0.33734,10.81484 -9.08844,19.62547 -19.90328,19.98266 a 20.577969,20.577969 0 0 1 -5.67531,-0.57547 0.81359375,0.81359375 0 0 1 -0.57547,-0.97235 l 1.76609,-7.02468 a 10.021094,10.021094 0 0 0 5.33797,1.44859 c 7.34219,0 13.23578,-6.64766 12.66031,-14.56531 -0.51594,-7.12391 -6.35,-12.81907 -13.49375,-13.1961 a 14.2875,14.2875 0 0 0 -15.04156,14.26766 14.545469,14.545469 0 0 0 1.03188,5.35781 1.59372,1.59372 0 0 0 2.95671,-1.19062 11.013281,11.013281 0 0 1 -0.81359,-3.9886 11.112859,11.112859 0 1 1 22.225,-0.17859 c 0,5.69516 -4.26641,10.31875 -9.525,10.31875 -2.08359,0 -3.53219,-0.73422 -4.52438,-1.5875 l 2.89719,-11.52922 a 1.5930713,1.5930713 0 1 0 -3.09562,-0.75406 l -5.31813,21.31219 a 0.79375,0.79375 0 0 1 -1.13109,0.51593 20.6375,20.6375 0 1 1 30.22203,-17.64109 z"
         id="path1260"
         style="fill:#e60023;fill-opacity:1;stroke-width:0.198437" /></g></g></svg>
