<?xml version="1.0" encoding="UTF-8" standalone="no"?>
<!-- Created with Inkscape (http://www.inkscape.org/) -->

<svg
   width="72.281998mm"
   height="72.281998mm"
   viewBox="0 0 72.281998 72.281998"
   version="1.1"
   id="svg5"
   xml:space="preserve"
   xmlns="http://www.w3.org/2000/svg"
   xmlns:svg="http://www.w3.org/2000/svg"><defs
     id="defs2" /><g
     id="layer1"
     transform="translate(-68.501207,-112.35904)"><g
       id="g1694"
       transform="matrix(0.99019709,0,0,1.0000011,480.22517,22.543267)"><rect
         style="fill:#3d3d3d;fill-opacity:1;stroke-width:3.34611;stroke-linecap:round;stroke-linejoin:round"
         id="rect356"
         width="72.997589"
         height="72.281921"
         x="-415.80002"
         y="89.815674"
         ry="23.034901" /><path
         d="m -371.36372,128.99272 v -18.91109 a 7.9375,7.9375 0 0 0 -15.875,0 v 18.91109 a 11.787188,11.787188 0 0 0 -3.96875,8.87016 11.90625,11.90625 0 0 0 23.8125,0 11.787188,11.787188 0 0 0 -3.96875,-8.87016 z m -7.9375,-23.67359 a 4.7823437,4.7823437 0 0 1 4.7625,4.7625 v 6.35 h -9.525 v -6.35 a 4.7823437,4.7823437 0 0 1 4.7625,-4.7625 z"
         id="path184"
         style="fill:#06d6a0;fill-opacity:1;stroke-width:0.198437" /></g></g></svg>
