<svg width="128" height="128" viewBox="0 0 128 128" fill="none" xmlns="http://www.w3.org/2000/svg">
<rect width="128" height="128" fill="white"/>
<path d="M98.9374 65.075C98.3663 83.3836 83.5515 98.2993 65.2429 98.9039C62.0106 99.0268 58.7769 98.6989 55.6351 97.9297C55.2911 97.835 54.9974 97.6104 54.8156 97.3034C54.6339 96.9963 54.5784 96.6308 54.6609 96.2836L57.6507 84.3914C60.3733 86.0404 63.5048 86.8903 66.6874 86.8438C79.1171 86.8438 89.0945 75.5899 88.1202 62.186C87.2468 50.1258 77.3702 40.4844 65.2765 39.8461C61.9972 39.6728 58.717 40.1691 55.6357 41.3047C52.5545 42.4402 49.7367 44.1914 47.3542 46.4513C44.9717 48.7112 43.0743 51.4326 41.7777 54.4497C40.4811 57.4667 39.8124 60.7162 39.8124 64C39.8174 67.1066 40.4101 70.1842 41.5593 73.0703C41.8266 73.7341 42.3466 74.2645 43.005 74.5449C43.6633 74.8252 44.4061 74.8326 45.0699 74.5653C45.7336 74.298 46.264 73.778 46.5444 73.1196C46.8247 72.4612 46.8321 71.7185 46.5648 71.0547C45.6901 68.9091 45.223 66.6192 45.1874 64.3024C45.1473 59.313 47.0909 54.512 50.5906 50.9557C54.0903 47.3993 58.8594 45.3788 63.8488 45.3387C68.8381 45.2986 73.6391 47.2422 77.1955 50.7419C80.7519 54.2415 82.7723 59.0107 82.8124 64C82.8124 73.6414 75.5898 81.4688 66.6874 81.4688C63.1601 81.4688 60.7077 80.2258 59.0281 78.7813L63.9327 59.2633C64.0166 58.9192 64.0318 58.562 63.9775 58.212C63.9233 57.862 63.8007 57.5261 63.6166 57.2235C63.4326 56.9209 63.1907 56.6576 62.9049 56.4484C62.619 56.2393 62.2948 56.0885 61.9507 56.0047C61.6066 55.9209 61.2494 55.9057 60.8994 55.9599C60.5494 56.0142 60.2135 56.1368 59.9109 56.3209C59.2998 56.6926 58.8614 57.2918 58.6921 57.9868L49.689 94.0664C49.6403 94.2628 49.5478 94.4457 49.4186 94.6013C49.2893 94.757 49.1265 94.8815 48.9424 94.9655C48.7584 95.0494 48.5577 95.0907 48.3554 95.0863C48.1531 95.0819 47.9544 95.0318 47.7742 94.9399C42.2517 92.0401 37.6062 87.7148 34.3202 82.4131C31.0342 77.1114 29.2274 71.0266 29.0875 64.7907C28.9477 58.5548 30.4798 52.3952 33.5248 46.9515C36.5699 41.5078 41.0167 36.9785 46.4036 33.8341C51.7905 30.6897 57.921 29.0447 64.1585 29.0701C70.3959 29.0955 76.5128 30.7903 81.8739 33.9785C87.235 37.1666 91.6449 41.7319 94.6455 47.2002C97.6461 52.6686 99.1281 58.8405 98.9374 65.075V65.075Z" fill="#E60023"/>
</svg>
