<svg width="128" height="128" viewBox="0 0 128 128" fill="none" xmlns="http://www.w3.org/2000/svg">
<rect width="128" height="128" fill="#FFA3FD"/>
<g clip-path="url(#clip0_123_105)">
<path d="M64 88.0625C77.2894 88.0625 88.0625 77.2894 88.0625 64C88.0625 50.7106 77.2894 39.9375 64 39.9375C50.7106 39.9375 39.9375 50.7106 39.9375 64C39.9375 77.2894 50.7106 88.0625 64 88.0625Z" stroke="black" stroke-width="4" stroke-linecap="round" stroke-linejoin="round"/>
<path d="M79.5203 45.6113C86.9387 43.6398 92.484 43.8477 94.1328 46.6887C97.1406 51.8648 86.0801 63.8086 69.4359 73.3707C52.7918 82.9328 36.8695 86.4957 33.8672 81.3004C32.2129 78.4484 34.827 73.543 40.2902 68.1125" stroke="black" stroke-width="4" stroke-linecap="round" stroke-linejoin="round"/>
</g>
<defs>
<clipPath id="clip0_123_105">
<rect width="70" height="70" fill="white" transform="translate(29 29)"/>
</clipPath>
</defs>
</svg>
