<svg width="128" height="128" viewBox="0 0 128 128" fill="none" xmlns="http://www.w3.org/2000/svg">
<rect width="128" height="128" fill="black"/>
<path d="M80.7265 33.2554C72.8421 28.966 63.6111 27.8696 54.9413 30.1927C45.9751 32.5953 38.3305 38.4612 33.6892 46.5001C29.0479 54.539 27.7902 64.0924 30.1926 73.0587C32.5952 82.0249 38.4611 89.6695 46.5001 94.3108C54.539 98.9521 64.0924 100.21 73.0586 97.8074C82.0249 95.4048 89.6694 89.5389 94.3107 81.4999C98.952 73.461 100.21 63.9076 97.8073 54.9414C96.5791 50.3575 94.4315 46.0713 91.4952 42.3433C88.5588 38.6153 84.895 35.5233 80.7265 33.2554V33.2554ZM62.5788 43.31C63.4696 43.8243 63.7728 44.9559 63.2585 45.8467L59.7926 51.8498L76.6256 61.5684L80.0701 55.6023C80.5844 54.7114 81.7162 54.4089 82.6071 54.9233C83.4979 55.4376 83.801 56.5685 83.2866 57.4593L67.9575 84.0101C67.4432 84.901 66.312 85.2045 65.4212 84.6901C64.5303 84.1758 64.2267 83.0439 64.741 82.153L68.1853 76.1874L51.3523 66.4689L47.9294 72.3975C47.4151 73.2884 46.2838 73.5912 45.3929 73.0768C44.502 72.5625 44.199 71.4316 44.7133 70.5407L60.0424 43.9899C60.5568 43.099 61.6879 42.7956 62.5788 43.31V43.31ZM57.9358 55.0659L53.2091 63.2528L70.0421 72.9714L74.7688 64.7844L57.9358 55.0659Z" fill="#1ED760"/>
</svg>
