<svg width="128" height="128" viewBox="0 0 128 128" fill="none" xmlns="http://www.w3.org/2000/svg">
<rect width="128" height="128" fill="#F6EF46"/>
<path d="M88.3016 39.9375H39.9818C38.8168 39.9375 37.6995 40.3984 36.8757 41.2189C36.0519 42.0394 35.5891 43.1522 35.5891 44.3125V81.5C35.5891 82.6603 36.0519 83.7731 36.8757 84.5936C37.6995 85.4141 38.8168 85.875 39.9818 85.875H44.3745V90.25C44.3745 90.8302 44.6059 91.3866 45.0178 91.7968C45.4297 92.207 45.9884 92.4375 46.5709 92.4375C47.1534 92.4375 47.712 92.207 48.1239 91.7968C48.5358 91.3866 48.7672 90.8302 48.7672 90.25V85.875H79.5162V90.25C79.5162 90.8302 79.7476 91.3866 80.1595 91.7968C80.5714 92.207 81.1301 92.4375 81.7126 92.4375C82.2951 92.4375 82.8537 92.207 83.2656 91.7968C83.6775 91.3866 83.9089 90.8302 83.9089 90.25V85.875H88.3016C89.4667 85.875 90.584 85.4141 91.4077 84.5936C92.2315 83.7731 92.6943 82.6603 92.6943 81.5V44.3125C92.6943 43.1522 92.2315 42.0394 91.4077 41.2189C90.584 40.3984 89.4667 39.9375 88.3016 39.9375V39.9375ZM86.1053 66.1875H78.1709C77.631 68.5471 76.2371 70.6259 74.2557 72.0269C72.2742 73.4278 69.8441 74.0526 67.4294 73.782C65.0147 73.5114 62.7847 72.3643 61.1653 70.5599C59.546 68.7555 58.6509 66.4201 58.6509 64C58.6509 61.5799 59.546 59.2445 61.1653 57.4401C62.7847 55.6356 65.0147 54.4886 67.4294 54.218C69.8441 53.9474 72.2742 54.5722 74.2557 55.9731C76.2371 57.3741 77.631 59.4529 78.1709 61.8125H86.1053C86.6878 61.8125 87.2464 62.043 87.6583 62.4532C88.0702 62.8634 88.3016 63.4198 88.3016 64C88.3016 64.5802 88.0702 65.1366 87.6583 65.5468C87.2464 65.957 86.6878 66.1875 86.1053 66.1875ZM74.0253 64C74.0253 65.0816 73.7033 66.1389 73.0999 67.0383C72.4966 67.9376 71.639 68.6385 70.6357 69.0525C69.6324 69.4664 68.5283 69.5747 67.4632 69.3637C66.3981 69.1527 65.4197 68.6318 64.6518 67.867C63.8839 67.1022 63.3609 66.1277 63.149 65.0669C62.9372 64.0061 63.0459 62.9065 63.4615 61.9072C63.8771 60.9079 64.5809 60.0538 65.4839 59.4529C66.3868 58.852 67.4484 58.5312 68.5344 58.5312C69.9885 58.5384 71.3809 59.1169 72.4091 60.1409C73.4373 61.165 74.0181 62.5518 74.0253 64V64Z" fill="black"/>
</svg>
